%TF.GenerationSoftware,KiCad,Pcbnew,(7.0.0)*%
%TF.CreationDate,2024-04-05T21:03:04-03:00*%
%TF.ProjectId,Lumin_ria Rodrigo,4c756d69-6ee1-4726-9961-20526f647269,rev?*%
%TF.SameCoordinates,Original*%
%TF.FileFunction,Legend,Top*%
%TF.FilePolarity,Positive*%
%FSLAX46Y46*%
G04 Gerber Fmt 4.6, Leading zero omitted, Abs format (unit mm)*
G04 Created by KiCad (PCBNEW (7.0.0)) date 2024-04-05 21:03:04*
%MOMM*%
%LPD*%
G01*
G04 APERTURE LIST*
%ADD10C,0.150000*%
%ADD11C,0.120000*%
G04 APERTURE END LIST*
D10*
%TO.C,C2*%
X120862142Y-75116666D02*
X120909761Y-75164285D01*
X120909761Y-75164285D02*
X120957380Y-75307142D01*
X120957380Y-75307142D02*
X120957380Y-75402380D01*
X120957380Y-75402380D02*
X120909761Y-75545237D01*
X120909761Y-75545237D02*
X120814523Y-75640475D01*
X120814523Y-75640475D02*
X120719285Y-75688094D01*
X120719285Y-75688094D02*
X120528809Y-75735713D01*
X120528809Y-75735713D02*
X120385952Y-75735713D01*
X120385952Y-75735713D02*
X120195476Y-75688094D01*
X120195476Y-75688094D02*
X120100238Y-75640475D01*
X120100238Y-75640475D02*
X120005000Y-75545237D01*
X120005000Y-75545237D02*
X119957380Y-75402380D01*
X119957380Y-75402380D02*
X119957380Y-75307142D01*
X119957380Y-75307142D02*
X120005000Y-75164285D01*
X120005000Y-75164285D02*
X120052619Y-75116666D01*
X120052619Y-74735713D02*
X120005000Y-74688094D01*
X120005000Y-74688094D02*
X119957380Y-74592856D01*
X119957380Y-74592856D02*
X119957380Y-74354761D01*
X119957380Y-74354761D02*
X120005000Y-74259523D01*
X120005000Y-74259523D02*
X120052619Y-74211904D01*
X120052619Y-74211904D02*
X120147857Y-74164285D01*
X120147857Y-74164285D02*
X120243095Y-74164285D01*
X120243095Y-74164285D02*
X120385952Y-74211904D01*
X120385952Y-74211904D02*
X120957380Y-74783332D01*
X120957380Y-74783332D02*
X120957380Y-74164285D01*
%TO.C,D5*%
X151347380Y-85828094D02*
X150347380Y-85828094D01*
X150347380Y-85828094D02*
X150347380Y-85589999D01*
X150347380Y-85589999D02*
X150395000Y-85447142D01*
X150395000Y-85447142D02*
X150490238Y-85351904D01*
X150490238Y-85351904D02*
X150585476Y-85304285D01*
X150585476Y-85304285D02*
X150775952Y-85256666D01*
X150775952Y-85256666D02*
X150918809Y-85256666D01*
X150918809Y-85256666D02*
X151109285Y-85304285D01*
X151109285Y-85304285D02*
X151204523Y-85351904D01*
X151204523Y-85351904D02*
X151299761Y-85447142D01*
X151299761Y-85447142D02*
X151347380Y-85589999D01*
X151347380Y-85589999D02*
X151347380Y-85828094D01*
X150347380Y-84351904D02*
X150347380Y-84828094D01*
X150347380Y-84828094D02*
X150823571Y-84875713D01*
X150823571Y-84875713D02*
X150775952Y-84828094D01*
X150775952Y-84828094D02*
X150728333Y-84732856D01*
X150728333Y-84732856D02*
X150728333Y-84494761D01*
X150728333Y-84494761D02*
X150775952Y-84399523D01*
X150775952Y-84399523D02*
X150823571Y-84351904D01*
X150823571Y-84351904D02*
X150918809Y-84304285D01*
X150918809Y-84304285D02*
X151156904Y-84304285D01*
X151156904Y-84304285D02*
X151252142Y-84351904D01*
X151252142Y-84351904D02*
X151299761Y-84399523D01*
X151299761Y-84399523D02*
X151347380Y-84494761D01*
X151347380Y-84494761D02*
X151347380Y-84732856D01*
X151347380Y-84732856D02*
X151299761Y-84828094D01*
X151299761Y-84828094D02*
X151252142Y-84875713D01*
%TO.C,D2*%
X120867380Y-85828094D02*
X119867380Y-85828094D01*
X119867380Y-85828094D02*
X119867380Y-85589999D01*
X119867380Y-85589999D02*
X119915000Y-85447142D01*
X119915000Y-85447142D02*
X120010238Y-85351904D01*
X120010238Y-85351904D02*
X120105476Y-85304285D01*
X120105476Y-85304285D02*
X120295952Y-85256666D01*
X120295952Y-85256666D02*
X120438809Y-85256666D01*
X120438809Y-85256666D02*
X120629285Y-85304285D01*
X120629285Y-85304285D02*
X120724523Y-85351904D01*
X120724523Y-85351904D02*
X120819761Y-85447142D01*
X120819761Y-85447142D02*
X120867380Y-85589999D01*
X120867380Y-85589999D02*
X120867380Y-85828094D01*
X119962619Y-84875713D02*
X119915000Y-84828094D01*
X119915000Y-84828094D02*
X119867380Y-84732856D01*
X119867380Y-84732856D02*
X119867380Y-84494761D01*
X119867380Y-84494761D02*
X119915000Y-84399523D01*
X119915000Y-84399523D02*
X119962619Y-84351904D01*
X119962619Y-84351904D02*
X120057857Y-84304285D01*
X120057857Y-84304285D02*
X120153095Y-84304285D01*
X120153095Y-84304285D02*
X120295952Y-84351904D01*
X120295952Y-84351904D02*
X120867380Y-84923332D01*
X120867380Y-84923332D02*
X120867380Y-84304285D01*
%TO.C,U1*%
X86537380Y-59181904D02*
X87346904Y-59181904D01*
X87346904Y-59181904D02*
X87442142Y-59134285D01*
X87442142Y-59134285D02*
X87489761Y-59086666D01*
X87489761Y-59086666D02*
X87537380Y-58991428D01*
X87537380Y-58991428D02*
X87537380Y-58800952D01*
X87537380Y-58800952D02*
X87489761Y-58705714D01*
X87489761Y-58705714D02*
X87442142Y-58658095D01*
X87442142Y-58658095D02*
X87346904Y-58610476D01*
X87346904Y-58610476D02*
X86537380Y-58610476D01*
X87537380Y-57610476D02*
X87537380Y-58181904D01*
X87537380Y-57896190D02*
X86537380Y-57896190D01*
X86537380Y-57896190D02*
X86680238Y-57991428D01*
X86680238Y-57991428D02*
X86775476Y-58086666D01*
X86775476Y-58086666D02*
X86823095Y-58181904D01*
%TO.C,R2*%
X127197380Y-68746666D02*
X126721190Y-69079999D01*
X127197380Y-69318094D02*
X126197380Y-69318094D01*
X126197380Y-69318094D02*
X126197380Y-68937142D01*
X126197380Y-68937142D02*
X126245000Y-68841904D01*
X126245000Y-68841904D02*
X126292619Y-68794285D01*
X126292619Y-68794285D02*
X126387857Y-68746666D01*
X126387857Y-68746666D02*
X126530714Y-68746666D01*
X126530714Y-68746666D02*
X126625952Y-68794285D01*
X126625952Y-68794285D02*
X126673571Y-68841904D01*
X126673571Y-68841904D02*
X126721190Y-68937142D01*
X126721190Y-68937142D02*
X126721190Y-69318094D01*
X126292619Y-68365713D02*
X126245000Y-68318094D01*
X126245000Y-68318094D02*
X126197380Y-68222856D01*
X126197380Y-68222856D02*
X126197380Y-67984761D01*
X126197380Y-67984761D02*
X126245000Y-67889523D01*
X126245000Y-67889523D02*
X126292619Y-67841904D01*
X126292619Y-67841904D02*
X126387857Y-67794285D01*
X126387857Y-67794285D02*
X126483095Y-67794285D01*
X126483095Y-67794285D02*
X126625952Y-67841904D01*
X126625952Y-67841904D02*
X127197380Y-68413332D01*
X127197380Y-68413332D02*
X127197380Y-67794285D01*
%TO.C,D6*%
X161507380Y-85828094D02*
X160507380Y-85828094D01*
X160507380Y-85828094D02*
X160507380Y-85589999D01*
X160507380Y-85589999D02*
X160555000Y-85447142D01*
X160555000Y-85447142D02*
X160650238Y-85351904D01*
X160650238Y-85351904D02*
X160745476Y-85304285D01*
X160745476Y-85304285D02*
X160935952Y-85256666D01*
X160935952Y-85256666D02*
X161078809Y-85256666D01*
X161078809Y-85256666D02*
X161269285Y-85304285D01*
X161269285Y-85304285D02*
X161364523Y-85351904D01*
X161364523Y-85351904D02*
X161459761Y-85447142D01*
X161459761Y-85447142D02*
X161507380Y-85589999D01*
X161507380Y-85589999D02*
X161507380Y-85828094D01*
X160507380Y-84399523D02*
X160507380Y-84589999D01*
X160507380Y-84589999D02*
X160555000Y-84685237D01*
X160555000Y-84685237D02*
X160602619Y-84732856D01*
X160602619Y-84732856D02*
X160745476Y-84828094D01*
X160745476Y-84828094D02*
X160935952Y-84875713D01*
X160935952Y-84875713D02*
X161316904Y-84875713D01*
X161316904Y-84875713D02*
X161412142Y-84828094D01*
X161412142Y-84828094D02*
X161459761Y-84780475D01*
X161459761Y-84780475D02*
X161507380Y-84685237D01*
X161507380Y-84685237D02*
X161507380Y-84494761D01*
X161507380Y-84494761D02*
X161459761Y-84399523D01*
X161459761Y-84399523D02*
X161412142Y-84351904D01*
X161412142Y-84351904D02*
X161316904Y-84304285D01*
X161316904Y-84304285D02*
X161078809Y-84304285D01*
X161078809Y-84304285D02*
X160983571Y-84351904D01*
X160983571Y-84351904D02*
X160935952Y-84399523D01*
X160935952Y-84399523D02*
X160888333Y-84494761D01*
X160888333Y-84494761D02*
X160888333Y-84685237D01*
X160888333Y-84685237D02*
X160935952Y-84780475D01*
X160935952Y-84780475D02*
X160983571Y-84828094D01*
X160983571Y-84828094D02*
X161078809Y-84875713D01*
%TO.C,J1*%
X71401780Y-68938733D02*
X72116066Y-68938733D01*
X72116066Y-68938733D02*
X72258923Y-68986352D01*
X72258923Y-68986352D02*
X72354161Y-69081590D01*
X72354161Y-69081590D02*
X72401780Y-69224447D01*
X72401780Y-69224447D02*
X72401780Y-69319685D01*
X72401780Y-67938733D02*
X72401780Y-68510161D01*
X72401780Y-68224447D02*
X71401780Y-68224447D01*
X71401780Y-68224447D02*
X71544638Y-68319685D01*
X71544638Y-68319685D02*
X71639876Y-68414923D01*
X71639876Y-68414923D02*
X71687495Y-68510161D01*
%TO.C,C1*%
X109452142Y-75076666D02*
X109499761Y-75124285D01*
X109499761Y-75124285D02*
X109547380Y-75267142D01*
X109547380Y-75267142D02*
X109547380Y-75362380D01*
X109547380Y-75362380D02*
X109499761Y-75505237D01*
X109499761Y-75505237D02*
X109404523Y-75600475D01*
X109404523Y-75600475D02*
X109309285Y-75648094D01*
X109309285Y-75648094D02*
X109118809Y-75695713D01*
X109118809Y-75695713D02*
X108975952Y-75695713D01*
X108975952Y-75695713D02*
X108785476Y-75648094D01*
X108785476Y-75648094D02*
X108690238Y-75600475D01*
X108690238Y-75600475D02*
X108595000Y-75505237D01*
X108595000Y-75505237D02*
X108547380Y-75362380D01*
X108547380Y-75362380D02*
X108547380Y-75267142D01*
X108547380Y-75267142D02*
X108595000Y-75124285D01*
X108595000Y-75124285D02*
X108642619Y-75076666D01*
X109547380Y-74124285D02*
X109547380Y-74695713D01*
X109547380Y-74409999D02*
X108547380Y-74409999D01*
X108547380Y-74409999D02*
X108690238Y-74505237D01*
X108690238Y-74505237D02*
X108785476Y-74600475D01*
X108785476Y-74600475D02*
X108833095Y-74695713D01*
%TO.C,R6*%
X167837380Y-68746666D02*
X167361190Y-69079999D01*
X167837380Y-69318094D02*
X166837380Y-69318094D01*
X166837380Y-69318094D02*
X166837380Y-68937142D01*
X166837380Y-68937142D02*
X166885000Y-68841904D01*
X166885000Y-68841904D02*
X166932619Y-68794285D01*
X166932619Y-68794285D02*
X167027857Y-68746666D01*
X167027857Y-68746666D02*
X167170714Y-68746666D01*
X167170714Y-68746666D02*
X167265952Y-68794285D01*
X167265952Y-68794285D02*
X167313571Y-68841904D01*
X167313571Y-68841904D02*
X167361190Y-68937142D01*
X167361190Y-68937142D02*
X167361190Y-69318094D01*
X166837380Y-67889523D02*
X166837380Y-68079999D01*
X166837380Y-68079999D02*
X166885000Y-68175237D01*
X166885000Y-68175237D02*
X166932619Y-68222856D01*
X166932619Y-68222856D02*
X167075476Y-68318094D01*
X167075476Y-68318094D02*
X167265952Y-68365713D01*
X167265952Y-68365713D02*
X167646904Y-68365713D01*
X167646904Y-68365713D02*
X167742142Y-68318094D01*
X167742142Y-68318094D02*
X167789761Y-68270475D01*
X167789761Y-68270475D02*
X167837380Y-68175237D01*
X167837380Y-68175237D02*
X167837380Y-67984761D01*
X167837380Y-67984761D02*
X167789761Y-67889523D01*
X167789761Y-67889523D02*
X167742142Y-67841904D01*
X167742142Y-67841904D02*
X167646904Y-67794285D01*
X167646904Y-67794285D02*
X167408809Y-67794285D01*
X167408809Y-67794285D02*
X167313571Y-67841904D01*
X167313571Y-67841904D02*
X167265952Y-67889523D01*
X167265952Y-67889523D02*
X167218333Y-67984761D01*
X167218333Y-67984761D02*
X167218333Y-68175237D01*
X167218333Y-68175237D02*
X167265952Y-68270475D01*
X167265952Y-68270475D02*
X167313571Y-68318094D01*
X167313571Y-68318094D02*
X167408809Y-68365713D01*
%TO.C,D1*%
X86657380Y-61698094D02*
X85657380Y-61698094D01*
X85657380Y-61698094D02*
X85657380Y-61459999D01*
X85657380Y-61459999D02*
X85705000Y-61317142D01*
X85705000Y-61317142D02*
X85800238Y-61221904D01*
X85800238Y-61221904D02*
X85895476Y-61174285D01*
X85895476Y-61174285D02*
X86085952Y-61126666D01*
X86085952Y-61126666D02*
X86228809Y-61126666D01*
X86228809Y-61126666D02*
X86419285Y-61174285D01*
X86419285Y-61174285D02*
X86514523Y-61221904D01*
X86514523Y-61221904D02*
X86609761Y-61317142D01*
X86609761Y-61317142D02*
X86657380Y-61459999D01*
X86657380Y-61459999D02*
X86657380Y-61698094D01*
X86657380Y-60174285D02*
X86657380Y-60745713D01*
X86657380Y-60459999D02*
X85657380Y-60459999D01*
X85657380Y-60459999D02*
X85800238Y-60555237D01*
X85800238Y-60555237D02*
X85895476Y-60650475D01*
X85895476Y-60650475D02*
X85943095Y-60745713D01*
X86287380Y-56141904D02*
X85287380Y-56141904D01*
X86287380Y-55570476D02*
X85715952Y-55999047D01*
X85287380Y-55570476D02*
X85858809Y-56141904D01*
%TO.C,R5*%
X157677380Y-68746666D02*
X157201190Y-69079999D01*
X157677380Y-69318094D02*
X156677380Y-69318094D01*
X156677380Y-69318094D02*
X156677380Y-68937142D01*
X156677380Y-68937142D02*
X156725000Y-68841904D01*
X156725000Y-68841904D02*
X156772619Y-68794285D01*
X156772619Y-68794285D02*
X156867857Y-68746666D01*
X156867857Y-68746666D02*
X157010714Y-68746666D01*
X157010714Y-68746666D02*
X157105952Y-68794285D01*
X157105952Y-68794285D02*
X157153571Y-68841904D01*
X157153571Y-68841904D02*
X157201190Y-68937142D01*
X157201190Y-68937142D02*
X157201190Y-69318094D01*
X156677380Y-67841904D02*
X156677380Y-68318094D01*
X156677380Y-68318094D02*
X157153571Y-68365713D01*
X157153571Y-68365713D02*
X157105952Y-68318094D01*
X157105952Y-68318094D02*
X157058333Y-68222856D01*
X157058333Y-68222856D02*
X157058333Y-67984761D01*
X157058333Y-67984761D02*
X157105952Y-67889523D01*
X157105952Y-67889523D02*
X157153571Y-67841904D01*
X157153571Y-67841904D02*
X157248809Y-67794285D01*
X157248809Y-67794285D02*
X157486904Y-67794285D01*
X157486904Y-67794285D02*
X157582142Y-67841904D01*
X157582142Y-67841904D02*
X157629761Y-67889523D01*
X157629761Y-67889523D02*
X157677380Y-67984761D01*
X157677380Y-67984761D02*
X157677380Y-68222856D01*
X157677380Y-68222856D02*
X157629761Y-68318094D01*
X157629761Y-68318094D02*
X157582142Y-68365713D01*
%TO.C,RV1*%
X78144761Y-98517380D02*
X77811428Y-98041190D01*
X77573333Y-98517380D02*
X77573333Y-97517380D01*
X77573333Y-97517380D02*
X77954285Y-97517380D01*
X77954285Y-97517380D02*
X78049523Y-97565000D01*
X78049523Y-97565000D02*
X78097142Y-97612619D01*
X78097142Y-97612619D02*
X78144761Y-97707857D01*
X78144761Y-97707857D02*
X78144761Y-97850714D01*
X78144761Y-97850714D02*
X78097142Y-97945952D01*
X78097142Y-97945952D02*
X78049523Y-97993571D01*
X78049523Y-97993571D02*
X77954285Y-98041190D01*
X77954285Y-98041190D02*
X77573333Y-98041190D01*
X78430476Y-97517380D02*
X78763809Y-98517380D01*
X78763809Y-98517380D02*
X79097142Y-97517380D01*
X79954285Y-98517380D02*
X79382857Y-98517380D01*
X79668571Y-98517380D02*
X79668571Y-97517380D01*
X79668571Y-97517380D02*
X79573333Y-97660238D01*
X79573333Y-97660238D02*
X79478095Y-97755476D01*
X79478095Y-97755476D02*
X79382857Y-97803095D01*
%TO.C,R1*%
X89437380Y-78906666D02*
X88961190Y-79239999D01*
X89437380Y-79478094D02*
X88437380Y-79478094D01*
X88437380Y-79478094D02*
X88437380Y-79097142D01*
X88437380Y-79097142D02*
X88485000Y-79001904D01*
X88485000Y-79001904D02*
X88532619Y-78954285D01*
X88532619Y-78954285D02*
X88627857Y-78906666D01*
X88627857Y-78906666D02*
X88770714Y-78906666D01*
X88770714Y-78906666D02*
X88865952Y-78954285D01*
X88865952Y-78954285D02*
X88913571Y-79001904D01*
X88913571Y-79001904D02*
X88961190Y-79097142D01*
X88961190Y-79097142D02*
X88961190Y-79478094D01*
X89437380Y-77954285D02*
X89437380Y-78525713D01*
X89437380Y-78239999D02*
X88437380Y-78239999D01*
X88437380Y-78239999D02*
X88580238Y-78335237D01*
X88580238Y-78335237D02*
X88675476Y-78430475D01*
X88675476Y-78430475D02*
X88723095Y-78525713D01*
%TO.C,R3*%
X137357380Y-68746666D02*
X136881190Y-69079999D01*
X137357380Y-69318094D02*
X136357380Y-69318094D01*
X136357380Y-69318094D02*
X136357380Y-68937142D01*
X136357380Y-68937142D02*
X136405000Y-68841904D01*
X136405000Y-68841904D02*
X136452619Y-68794285D01*
X136452619Y-68794285D02*
X136547857Y-68746666D01*
X136547857Y-68746666D02*
X136690714Y-68746666D01*
X136690714Y-68746666D02*
X136785952Y-68794285D01*
X136785952Y-68794285D02*
X136833571Y-68841904D01*
X136833571Y-68841904D02*
X136881190Y-68937142D01*
X136881190Y-68937142D02*
X136881190Y-69318094D01*
X136357380Y-68413332D02*
X136357380Y-67794285D01*
X136357380Y-67794285D02*
X136738333Y-68127618D01*
X136738333Y-68127618D02*
X136738333Y-67984761D01*
X136738333Y-67984761D02*
X136785952Y-67889523D01*
X136785952Y-67889523D02*
X136833571Y-67841904D01*
X136833571Y-67841904D02*
X136928809Y-67794285D01*
X136928809Y-67794285D02*
X137166904Y-67794285D01*
X137166904Y-67794285D02*
X137262142Y-67841904D01*
X137262142Y-67841904D02*
X137309761Y-67889523D01*
X137309761Y-67889523D02*
X137357380Y-67984761D01*
X137357380Y-67984761D02*
X137357380Y-68270475D01*
X137357380Y-68270475D02*
X137309761Y-68365713D01*
X137309761Y-68365713D02*
X137262142Y-68413332D01*
%TO.C,D3*%
X131027380Y-85828094D02*
X130027380Y-85828094D01*
X130027380Y-85828094D02*
X130027380Y-85589999D01*
X130027380Y-85589999D02*
X130075000Y-85447142D01*
X130075000Y-85447142D02*
X130170238Y-85351904D01*
X130170238Y-85351904D02*
X130265476Y-85304285D01*
X130265476Y-85304285D02*
X130455952Y-85256666D01*
X130455952Y-85256666D02*
X130598809Y-85256666D01*
X130598809Y-85256666D02*
X130789285Y-85304285D01*
X130789285Y-85304285D02*
X130884523Y-85351904D01*
X130884523Y-85351904D02*
X130979761Y-85447142D01*
X130979761Y-85447142D02*
X131027380Y-85589999D01*
X131027380Y-85589999D02*
X131027380Y-85828094D01*
X130027380Y-84923332D02*
X130027380Y-84304285D01*
X130027380Y-84304285D02*
X130408333Y-84637618D01*
X130408333Y-84637618D02*
X130408333Y-84494761D01*
X130408333Y-84494761D02*
X130455952Y-84399523D01*
X130455952Y-84399523D02*
X130503571Y-84351904D01*
X130503571Y-84351904D02*
X130598809Y-84304285D01*
X130598809Y-84304285D02*
X130836904Y-84304285D01*
X130836904Y-84304285D02*
X130932142Y-84351904D01*
X130932142Y-84351904D02*
X130979761Y-84399523D01*
X130979761Y-84399523D02*
X131027380Y-84494761D01*
X131027380Y-84494761D02*
X131027380Y-84780475D01*
X131027380Y-84780475D02*
X130979761Y-84875713D01*
X130979761Y-84875713D02*
X130932142Y-84923332D01*
%TO.C,D4*%
X141187380Y-85828094D02*
X140187380Y-85828094D01*
X140187380Y-85828094D02*
X140187380Y-85589999D01*
X140187380Y-85589999D02*
X140235000Y-85447142D01*
X140235000Y-85447142D02*
X140330238Y-85351904D01*
X140330238Y-85351904D02*
X140425476Y-85304285D01*
X140425476Y-85304285D02*
X140615952Y-85256666D01*
X140615952Y-85256666D02*
X140758809Y-85256666D01*
X140758809Y-85256666D02*
X140949285Y-85304285D01*
X140949285Y-85304285D02*
X141044523Y-85351904D01*
X141044523Y-85351904D02*
X141139761Y-85447142D01*
X141139761Y-85447142D02*
X141187380Y-85589999D01*
X141187380Y-85589999D02*
X141187380Y-85828094D01*
X140520714Y-84399523D02*
X141187380Y-84399523D01*
X140139761Y-84637618D02*
X140854047Y-84875713D01*
X140854047Y-84875713D02*
X140854047Y-84256666D01*
%TO.C,R4*%
X147517380Y-68746666D02*
X147041190Y-69079999D01*
X147517380Y-69318094D02*
X146517380Y-69318094D01*
X146517380Y-69318094D02*
X146517380Y-68937142D01*
X146517380Y-68937142D02*
X146565000Y-68841904D01*
X146565000Y-68841904D02*
X146612619Y-68794285D01*
X146612619Y-68794285D02*
X146707857Y-68746666D01*
X146707857Y-68746666D02*
X146850714Y-68746666D01*
X146850714Y-68746666D02*
X146945952Y-68794285D01*
X146945952Y-68794285D02*
X146993571Y-68841904D01*
X146993571Y-68841904D02*
X147041190Y-68937142D01*
X147041190Y-68937142D02*
X147041190Y-69318094D01*
X146850714Y-67889523D02*
X147517380Y-67889523D01*
X146469761Y-68127618D02*
X147184047Y-68365713D01*
X147184047Y-68365713D02*
X147184047Y-67746666D01*
D11*
%TO.C,C2*%
X118315000Y-72145225D02*
X118315000Y-72645225D01*
X118565000Y-72395225D02*
X118065000Y-72395225D01*
X119420000Y-74950000D02*
X114260000Y-74950000D01*
X119420000Y-74990000D02*
X114260000Y-74990000D01*
X119419000Y-75030000D02*
X114261000Y-75030000D01*
X119418000Y-75070000D02*
X114262000Y-75070000D01*
X119416000Y-75110000D02*
X114264000Y-75110000D01*
X119413000Y-75150000D02*
X114267000Y-75150000D01*
X119409000Y-75190000D02*
X117880000Y-75190000D01*
X115800000Y-75190000D02*
X114271000Y-75190000D01*
X119405000Y-75230000D02*
X117880000Y-75230000D01*
X115800000Y-75230000D02*
X114275000Y-75230000D01*
X119401000Y-75270000D02*
X117880000Y-75270000D01*
X115800000Y-75270000D02*
X114279000Y-75270000D01*
X119396000Y-75310000D02*
X117880000Y-75310000D01*
X115800000Y-75310000D02*
X114284000Y-75310000D01*
X119390000Y-75350000D02*
X117880000Y-75350000D01*
X115800000Y-75350000D02*
X114290000Y-75350000D01*
X119383000Y-75390000D02*
X117880000Y-75390000D01*
X115800000Y-75390000D02*
X114297000Y-75390000D01*
X119376000Y-75430000D02*
X117880000Y-75430000D01*
X115800000Y-75430000D02*
X114304000Y-75430000D01*
X119368000Y-75470000D02*
X117880000Y-75470000D01*
X115800000Y-75470000D02*
X114312000Y-75470000D01*
X119360000Y-75510000D02*
X117880000Y-75510000D01*
X115800000Y-75510000D02*
X114320000Y-75510000D01*
X119351000Y-75550000D02*
X117880000Y-75550000D01*
X115800000Y-75550000D02*
X114329000Y-75550000D01*
X119341000Y-75590000D02*
X117880000Y-75590000D01*
X115800000Y-75590000D02*
X114339000Y-75590000D01*
X119331000Y-75630000D02*
X117880000Y-75630000D01*
X115800000Y-75630000D02*
X114349000Y-75630000D01*
X119320000Y-75671000D02*
X117880000Y-75671000D01*
X115800000Y-75671000D02*
X114360000Y-75671000D01*
X119308000Y-75711000D02*
X117880000Y-75711000D01*
X115800000Y-75711000D02*
X114372000Y-75711000D01*
X119295000Y-75751000D02*
X117880000Y-75751000D01*
X115800000Y-75751000D02*
X114385000Y-75751000D01*
X119282000Y-75791000D02*
X117880000Y-75791000D01*
X115800000Y-75791000D02*
X114398000Y-75791000D01*
X119268000Y-75831000D02*
X117880000Y-75831000D01*
X115800000Y-75831000D02*
X114412000Y-75831000D01*
X119254000Y-75871000D02*
X117880000Y-75871000D01*
X115800000Y-75871000D02*
X114426000Y-75871000D01*
X119238000Y-75911000D02*
X117880000Y-75911000D01*
X115800000Y-75911000D02*
X114442000Y-75911000D01*
X119222000Y-75951000D02*
X117880000Y-75951000D01*
X115800000Y-75951000D02*
X114458000Y-75951000D01*
X119205000Y-75991000D02*
X117880000Y-75991000D01*
X115800000Y-75991000D02*
X114475000Y-75991000D01*
X119188000Y-76031000D02*
X117880000Y-76031000D01*
X115800000Y-76031000D02*
X114492000Y-76031000D01*
X119169000Y-76071000D02*
X117880000Y-76071000D01*
X115800000Y-76071000D02*
X114511000Y-76071000D01*
X119150000Y-76111000D02*
X117880000Y-76111000D01*
X115800000Y-76111000D02*
X114530000Y-76111000D01*
X119130000Y-76151000D02*
X117880000Y-76151000D01*
X115800000Y-76151000D02*
X114550000Y-76151000D01*
X119108000Y-76191000D02*
X117880000Y-76191000D01*
X115800000Y-76191000D02*
X114572000Y-76191000D01*
X119087000Y-76231000D02*
X117880000Y-76231000D01*
X115800000Y-76231000D02*
X114593000Y-76231000D01*
X119064000Y-76271000D02*
X117880000Y-76271000D01*
X115800000Y-76271000D02*
X114616000Y-76271000D01*
X119040000Y-76311000D02*
X117880000Y-76311000D01*
X115800000Y-76311000D02*
X114640000Y-76311000D01*
X119015000Y-76351000D02*
X117880000Y-76351000D01*
X115800000Y-76351000D02*
X114665000Y-76351000D01*
X118989000Y-76391000D02*
X117880000Y-76391000D01*
X115800000Y-76391000D02*
X114691000Y-76391000D01*
X118962000Y-76431000D02*
X117880000Y-76431000D01*
X115800000Y-76431000D02*
X114718000Y-76431000D01*
X118935000Y-76471000D02*
X117880000Y-76471000D01*
X115800000Y-76471000D02*
X114745000Y-76471000D01*
X118905000Y-76511000D02*
X117880000Y-76511000D01*
X115800000Y-76511000D02*
X114775000Y-76511000D01*
X118875000Y-76551000D02*
X117880000Y-76551000D01*
X115800000Y-76551000D02*
X114805000Y-76551000D01*
X118844000Y-76591000D02*
X117880000Y-76591000D01*
X115800000Y-76591000D02*
X114836000Y-76591000D01*
X118811000Y-76631000D02*
X117880000Y-76631000D01*
X115800000Y-76631000D02*
X114869000Y-76631000D01*
X118777000Y-76671000D02*
X117880000Y-76671000D01*
X115800000Y-76671000D02*
X114903000Y-76671000D01*
X118741000Y-76711000D02*
X117880000Y-76711000D01*
X115800000Y-76711000D02*
X114939000Y-76711000D01*
X118704000Y-76751000D02*
X117880000Y-76751000D01*
X115800000Y-76751000D02*
X114976000Y-76751000D01*
X118666000Y-76791000D02*
X117880000Y-76791000D01*
X115800000Y-76791000D02*
X115014000Y-76791000D01*
X118625000Y-76831000D02*
X117880000Y-76831000D01*
X115800000Y-76831000D02*
X115055000Y-76831000D01*
X118583000Y-76871000D02*
X117880000Y-76871000D01*
X115800000Y-76871000D02*
X115097000Y-76871000D01*
X118539000Y-76911000D02*
X117880000Y-76911000D01*
X115800000Y-76911000D02*
X115141000Y-76911000D01*
X118493000Y-76951000D02*
X117880000Y-76951000D01*
X115800000Y-76951000D02*
X115187000Y-76951000D01*
X118445000Y-76991000D02*
X117880000Y-76991000D01*
X115800000Y-76991000D02*
X115235000Y-76991000D01*
X118394000Y-77031000D02*
X117880000Y-77031000D01*
X115800000Y-77031000D02*
X115286000Y-77031000D01*
X118340000Y-77071000D02*
X117880000Y-77071000D01*
X115800000Y-77071000D02*
X115340000Y-77071000D01*
X118283000Y-77111000D02*
X117880000Y-77111000D01*
X115800000Y-77111000D02*
X115397000Y-77111000D01*
X118223000Y-77151000D02*
X117880000Y-77151000D01*
X115800000Y-77151000D02*
X115457000Y-77151000D01*
X118159000Y-77191000D02*
X117880000Y-77191000D01*
X115800000Y-77191000D02*
X115521000Y-77191000D01*
X118091000Y-77231000D02*
X117880000Y-77231000D01*
X115800000Y-77231000D02*
X115589000Y-77231000D01*
X118018000Y-77271000D02*
X115662000Y-77271000D01*
X117938000Y-77311000D02*
X115742000Y-77311000D01*
X117851000Y-77351000D02*
X115829000Y-77351000D01*
X117755000Y-77391000D02*
X115925000Y-77391000D01*
X117645000Y-77431000D02*
X116035000Y-77431000D01*
X117517000Y-77471000D02*
X116163000Y-77471000D01*
X117358000Y-77511000D02*
X116322000Y-77511000D01*
X117124000Y-77551000D02*
X116556000Y-77551000D01*
X119460000Y-74950000D02*
G75*
G03*
X119460000Y-74950000I-2620000J0D01*
G01*
%TO.C,D5*%
X153395000Y-87650000D02*
X156485000Y-87650000D01*
X154940462Y-82100001D02*
G75*
G03*
X153395170Y-87649999I-462J-2989999D01*
G01*
X156484830Y-87650000D02*
G75*
G03*
X154939538Y-82100000I-1544830J2560000D01*
G01*
X157440000Y-85090000D02*
G75*
G03*
X157440000Y-85090000I-2500000J0D01*
G01*
%TO.C,D2*%
X122915000Y-87650000D02*
X126005000Y-87650000D01*
X124460462Y-82100001D02*
G75*
G03*
X122915170Y-87649999I-462J-2989999D01*
G01*
X126004830Y-87650000D02*
G75*
G03*
X124459538Y-82100000I-1544830J2560000D01*
G01*
X126960000Y-85090000D02*
G75*
G03*
X126960000Y-85090000I-2500000J0D01*
G01*
%TO.C,U1*%
X88170000Y-63540000D02*
X92811000Y-63540000D01*
X88170000Y-63540000D02*
X88170000Y-53300000D01*
X89680000Y-63540000D02*
X89680000Y-53300000D01*
X92811000Y-63540000D02*
X92811000Y-53300000D01*
X88170000Y-60270000D02*
X89680000Y-60270000D01*
X88170000Y-56569000D02*
X89680000Y-56569000D01*
X88170000Y-53300000D02*
X92811000Y-53300000D01*
%TO.C,R2*%
X125830000Y-65310000D02*
X125830000Y-71850000D01*
X125500000Y-65310000D02*
X125830000Y-65310000D01*
X123420000Y-65310000D02*
X123090000Y-65310000D01*
X123090000Y-65310000D02*
X123090000Y-71850000D01*
X125830000Y-71850000D02*
X125500000Y-71850000D01*
X123090000Y-71850000D02*
X123420000Y-71850000D01*
%TO.C,D6*%
X163555000Y-87650000D02*
X166645000Y-87650000D01*
X165100462Y-82100001D02*
G75*
G03*
X163555170Y-87649999I-462J-2989999D01*
G01*
X166644830Y-87650000D02*
G75*
G03*
X165099538Y-82100000I-1544830J2560000D01*
G01*
X167600000Y-85090000D02*
G75*
G03*
X167600000Y-85090000I-2500000J0D01*
G01*
%TO.C,J1*%
X73304400Y-73685400D02*
X80924400Y-73685400D01*
X80924400Y-73685400D02*
X80924400Y-63525400D01*
X73304400Y-63525400D02*
X73304400Y-73685400D01*
X79654400Y-63525400D02*
X79654400Y-73685400D01*
X80924400Y-63525400D02*
X73304400Y-63525400D01*
%TO.C,C1*%
X108050000Y-72290000D02*
X105310000Y-72290000D01*
X108050000Y-72290000D02*
X108050000Y-77530000D01*
X105310000Y-72290000D02*
X105310000Y-77530000D01*
X108050000Y-77530000D02*
X105310000Y-77530000D01*
%TO.C,R6*%
X166470000Y-65310000D02*
X166470000Y-71850000D01*
X166140000Y-65310000D02*
X166470000Y-65310000D01*
X164060000Y-65310000D02*
X163730000Y-65310000D01*
X163730000Y-65310000D02*
X163730000Y-71850000D01*
X166470000Y-71850000D02*
X166140000Y-71850000D01*
X163730000Y-71850000D02*
X164060000Y-71850000D01*
%TO.C,D1*%
X83820000Y-57220000D02*
X83820000Y-58240000D01*
X85290000Y-58240000D02*
X82350000Y-58240000D01*
X82350000Y-58240000D02*
X82350000Y-63680000D01*
X85290000Y-59020000D02*
X82350000Y-59020000D01*
X85290000Y-59140000D02*
X82350000Y-59140000D01*
X85290000Y-59260000D02*
X82350000Y-59260000D01*
X85290000Y-63680000D02*
X85290000Y-58240000D01*
X82350000Y-63680000D02*
X85290000Y-63680000D01*
X83820000Y-64700000D02*
X83820000Y-63680000D01*
%TO.C,R5*%
X156310000Y-65310000D02*
X156310000Y-71850000D01*
X155980000Y-65310000D02*
X156310000Y-65310000D01*
X153900000Y-65310000D02*
X153570000Y-65310000D01*
X153570000Y-65310000D02*
X153570000Y-71850000D01*
X156310000Y-71850000D02*
X155980000Y-71850000D01*
X153570000Y-71850000D02*
X153900000Y-71850000D01*
%TO.C,RV1*%
X80360000Y-97020000D02*
X80360000Y-80780000D01*
X80360000Y-97020000D02*
X72120000Y-97020000D01*
X80360000Y-80780000D02*
X72120000Y-80780000D01*
X72120000Y-97020000D02*
X72120000Y-80780000D01*
X72120000Y-94020000D02*
X72120000Y-83780000D01*
X72120000Y-94020000D02*
X63120000Y-94020000D01*
X72120000Y-83780000D02*
X63120000Y-83780000D01*
X63120000Y-94020000D02*
X63120000Y-83780000D01*
X63120000Y-92020000D02*
X63120000Y-85779000D01*
X63120000Y-92020000D02*
X47120000Y-92020000D01*
X63120000Y-85779000D02*
X47120000Y-85779000D01*
X47120000Y-92020000D02*
X47120000Y-85779000D01*
%TO.C,R1*%
X90070000Y-82010000D02*
X90070000Y-75470000D01*
X90400000Y-82010000D02*
X90070000Y-82010000D01*
X92480000Y-82010000D02*
X92810000Y-82010000D01*
X92810000Y-82010000D02*
X92810000Y-75470000D01*
X90070000Y-75470000D02*
X90400000Y-75470000D01*
X92810000Y-75470000D02*
X92480000Y-75470000D01*
%TO.C,R3*%
X135990000Y-65310000D02*
X135990000Y-71850000D01*
X135660000Y-65310000D02*
X135990000Y-65310000D01*
X133580000Y-65310000D02*
X133250000Y-65310000D01*
X133250000Y-65310000D02*
X133250000Y-71850000D01*
X135990000Y-71850000D02*
X135660000Y-71850000D01*
X133250000Y-71850000D02*
X133580000Y-71850000D01*
%TO.C,D3*%
X133075000Y-87650000D02*
X136165000Y-87650000D01*
X134620462Y-82100001D02*
G75*
G03*
X133075170Y-87649999I-462J-2989999D01*
G01*
X136164830Y-87650000D02*
G75*
G03*
X134619538Y-82100000I-1544830J2560000D01*
G01*
X137120000Y-85090000D02*
G75*
G03*
X137120000Y-85090000I-2500000J0D01*
G01*
%TO.C,D4*%
X143235000Y-87650000D02*
X146325000Y-87650000D01*
X144780462Y-82100001D02*
G75*
G03*
X143235170Y-87649999I-462J-2989999D01*
G01*
X146324830Y-87650000D02*
G75*
G03*
X144779538Y-82100000I-1544830J2560000D01*
G01*
X147280000Y-85090000D02*
G75*
G03*
X147280000Y-85090000I-2500000J0D01*
G01*
%TO.C,R4*%
X146150000Y-65310000D02*
X146150000Y-71850000D01*
X145820000Y-65310000D02*
X146150000Y-65310000D01*
X143740000Y-65310000D02*
X143410000Y-65310000D01*
X143410000Y-65310000D02*
X143410000Y-71850000D01*
X146150000Y-71850000D02*
X145820000Y-71850000D01*
X143410000Y-71850000D02*
X143740000Y-71850000D01*
%TD*%
M02*
