%TF.GenerationSoftware,KiCad,Pcbnew,(7.0.0)*%
%TF.CreationDate,2024-04-05T21:03:04-03:00*%
%TF.ProjectId,Lumin_ria Rodrigo,4c756d69-6ee1-4726-9961-20526f647269,rev?*%
%TF.SameCoordinates,Original*%
%TF.FileFunction,Copper,L2,Bot*%
%TF.FilePolarity,Positive*%
%FSLAX46Y46*%
G04 Gerber Fmt 4.6, Leading zero omitted, Abs format (unit mm)*
G04 Created by KiCad (PCBNEW (7.0.0)) date 2024-04-05 21:03:04*
%MOMM*%
%LPD*%
G01*
G04 APERTURE LIST*
%TA.AperFunction,ComponentPad*%
%ADD10R,1.600000X1.600000*%
%TD*%
%TA.AperFunction,ComponentPad*%
%ADD11C,1.600000*%
%TD*%
%TA.AperFunction,ComponentPad*%
%ADD12R,1.800000X1.800000*%
%TD*%
%TA.AperFunction,ComponentPad*%
%ADD13C,1.800000*%
%TD*%
%TA.AperFunction,ComponentPad*%
%ADD14R,2.000000X1.905000*%
%TD*%
%TA.AperFunction,ComponentPad*%
%ADD15O,2.000000X1.905000*%
%TD*%
%TA.AperFunction,ComponentPad*%
%ADD16O,1.600000X1.600000*%
%TD*%
%TA.AperFunction,ComponentPad*%
%ADD17R,3.000000X3.000000*%
%TD*%
%TA.AperFunction,ComponentPad*%
%ADD18C,3.000000*%
%TD*%
%TA.AperFunction,ComponentPad*%
%ADD19R,2.200000X2.200000*%
%TD*%
%TA.AperFunction,ComponentPad*%
%ADD20O,2.200000X2.200000*%
%TD*%
%TA.AperFunction,ComponentPad*%
%ADD21C,2.340000*%
%TD*%
%TA.AperFunction,Conductor*%
%ADD22C,1.016000*%
%TD*%
G04 APERTURE END LIST*
D10*
%TO.P,C2,1*%
%TO.N,Net-(U1-VO)*%
X116839999Y-73699999D03*
D11*
%TO.P,C2,2*%
%TO.N,GNDREF*%
X116840000Y-76200000D03*
%TD*%
D12*
%TO.P,D5,1,K*%
%TO.N,GNDREF*%
X154939999Y-86359999D03*
D13*
%TO.P,D5,2,A*%
%TO.N,Net-(D5-A)*%
X154940000Y-83820000D03*
%TD*%
D12*
%TO.P,D2,1,K*%
%TO.N,GNDREF*%
X124459999Y-86359999D03*
D13*
%TO.P,D2,2,A*%
%TO.N,Net-(D2-A)*%
X124460000Y-83820000D03*
%TD*%
D14*
%TO.P,U1,1,ADJ*%
%TO.N,Net-(U1-ADJ)*%
X91439999Y-60959999D03*
D15*
%TO.P,U1,2,VO*%
%TO.N,Net-(U1-VO)*%
X91439999Y-58419999D03*
%TO.P,U1,3,VI*%
%TO.N,Net-(D1-K)*%
X91439999Y-55879999D03*
%TD*%
D11*
%TO.P,R2,1*%
%TO.N,Net-(U1-VO)*%
X124460000Y-64770000D03*
D16*
%TO.P,R2,2*%
%TO.N,Net-(D2-A)*%
X124459999Y-72389999D03*
%TD*%
D12*
%TO.P,D6,1,K*%
%TO.N,GNDREF*%
X165099999Y-86359999D03*
D13*
%TO.P,D6,2,A*%
%TO.N,Net-(D6-A)*%
X165100000Y-83820000D03*
%TD*%
D17*
%TO.P,J1,1,Pin_1*%
%TO.N,GNDREF*%
X77114399Y-71145399D03*
D18*
%TO.P,J1,2,Pin_2*%
%TO.N,Net-(D1-A)*%
X77114400Y-66065400D03*
%TD*%
D11*
%TO.P,C1,1*%
%TO.N,Net-(U1-VO)*%
X106680000Y-73660000D03*
%TO.P,C1,2*%
%TO.N,GNDREF*%
X106680000Y-76160000D03*
%TD*%
%TO.P,R6,1*%
%TO.N,Net-(U1-VO)*%
X165100000Y-64770000D03*
D16*
%TO.P,R6,2*%
%TO.N,Net-(D6-A)*%
X165099999Y-72389999D03*
%TD*%
D19*
%TO.P,D1,1,K*%
%TO.N,Net-(D1-K)*%
X83819999Y-55879999D03*
D20*
%TO.P,D1,2,A*%
%TO.N,Net-(D1-A)*%
X83819999Y-66039999D03*
%TD*%
D11*
%TO.P,R5,1*%
%TO.N,Net-(U1-VO)*%
X154940000Y-64770000D03*
D16*
%TO.P,R5,2*%
%TO.N,Net-(D5-A)*%
X154939999Y-72389999D03*
%TD*%
D21*
%TO.P,RV1,1,1*%
%TO.N,Net-(U1-ADJ)*%
X78740000Y-83900000D03*
%TO.P,RV1,2,2*%
X78740000Y-88900000D03*
%TO.P,RV1,3,3*%
%TO.N,GNDREF*%
X78740000Y-93900000D03*
%TD*%
D11*
%TO.P,R1,1*%
%TO.N,Net-(U1-VO)*%
X91440000Y-82550000D03*
D16*
%TO.P,R1,2*%
%TO.N,Net-(U1-ADJ)*%
X91439999Y-74929999D03*
%TD*%
D11*
%TO.P,R3,1*%
%TO.N,Net-(U1-VO)*%
X134620000Y-64770000D03*
D16*
%TO.P,R3,2*%
%TO.N,Net-(D3-A)*%
X134619999Y-72389999D03*
%TD*%
D12*
%TO.P,D3,1,K*%
%TO.N,GNDREF*%
X134619999Y-86359999D03*
D13*
%TO.P,D3,2,A*%
%TO.N,Net-(D3-A)*%
X134620000Y-83820000D03*
%TD*%
D12*
%TO.P,D4,1,K*%
%TO.N,GNDREF*%
X144779999Y-86359999D03*
D13*
%TO.P,D4,2,A*%
%TO.N,Net-(D4-A)*%
X144780000Y-83820000D03*
%TD*%
D11*
%TO.P,R4,1*%
%TO.N,Net-(U1-VO)*%
X144780000Y-64770000D03*
D16*
%TO.P,R4,2*%
%TO.N,Net-(D4-A)*%
X144779999Y-72389999D03*
%TD*%
D22*
%TO.N,Net-(U1-VO)*%
X106680000Y-73660000D02*
X106680000Y-58420000D01*
X91440000Y-58420000D02*
X99060000Y-58420000D01*
X99060000Y-58420000D02*
X101600000Y-58420000D01*
X116840000Y-73700000D02*
X116840000Y-58420000D01*
X144780000Y-64770000D02*
X144780000Y-58420000D01*
X106680000Y-58420000D02*
X116840000Y-58420000D01*
X124460000Y-58420000D02*
X144780000Y-58420000D01*
X134620000Y-64770000D02*
X134620000Y-58420000D01*
X134620000Y-58420000D02*
X137160000Y-58420000D01*
X165100000Y-58420000D02*
X165100000Y-64770000D01*
X144780000Y-58420000D02*
X154940000Y-58420000D01*
X116840000Y-58420000D02*
X124460000Y-58420000D01*
X124460000Y-64770000D02*
X124460000Y-58420000D01*
X154940000Y-58420000D02*
X165100000Y-58420000D01*
X154940000Y-64770000D02*
X154940000Y-58420000D01*
X91440000Y-82550000D02*
X101600000Y-72390000D01*
X101600000Y-72390000D02*
X101600000Y-58420000D01*
X101600000Y-58420000D02*
X106680000Y-58420000D01*
%TO.N,Net-(D1-K)*%
X83820000Y-55880000D02*
X91440000Y-55880000D01*
%TO.N,Net-(D1-A)*%
X83794600Y-66065400D02*
X83820000Y-66040000D01*
X77114400Y-66065400D02*
X83794600Y-66065400D01*
%TO.N,Net-(D2-A)*%
X124460000Y-72390000D02*
X124460000Y-83820000D01*
%TO.N,Net-(D3-A)*%
X134620000Y-72390000D02*
X134620000Y-83820000D01*
%TO.N,Net-(D4-A)*%
X144780000Y-72390000D02*
X144780000Y-83820000D01*
%TO.N,Net-(D5-A)*%
X154940000Y-72390000D02*
X154940000Y-83820000D01*
%TO.N,Net-(D6-A)*%
X165100000Y-72390000D02*
X165100000Y-83820000D01*
%TO.N,Net-(U1-ADJ)*%
X78740000Y-88900000D02*
X78740000Y-83900000D01*
X91440000Y-74930000D02*
X87710000Y-74930000D01*
X91440000Y-60960000D02*
X91440000Y-74930000D01*
X87710000Y-74930000D02*
X78740000Y-83900000D01*
%TD*%
%TA.AperFunction,Conductor*%
%TO.N,GNDREF*%
G36*
X169813155Y-50130823D02*
G01*
X169858545Y-50176237D01*
X169875136Y-50238261D01*
X169861512Y-76915867D01*
X169849863Y-99723526D01*
X169833240Y-99785481D01*
X169787881Y-99830840D01*
X169725926Y-99847463D01*
X135682760Y-99864805D01*
X70253462Y-99898136D01*
X70191436Y-99881545D01*
X70146023Y-99836155D01*
X70129400Y-99774137D01*
X70129400Y-95244796D01*
X77752157Y-95244796D01*
X77759705Y-95252854D01*
X77898817Y-95347698D01*
X77906850Y-95352336D01*
X78123990Y-95456905D01*
X78132600Y-95460284D01*
X78362917Y-95531328D01*
X78371933Y-95533386D01*
X78610265Y-95569308D01*
X78619488Y-95570000D01*
X78860512Y-95570000D01*
X78869734Y-95569308D01*
X79108066Y-95533386D01*
X79117082Y-95531328D01*
X79347399Y-95460284D01*
X79356010Y-95456904D01*
X79573158Y-95352332D01*
X79581178Y-95347702D01*
X79720293Y-95252855D01*
X79727840Y-95244796D01*
X79721923Y-95235476D01*
X78751542Y-94265095D01*
X78740000Y-94258431D01*
X78728457Y-94265095D01*
X77758073Y-95235478D01*
X77752157Y-95244796D01*
X70129400Y-95244796D01*
X70129400Y-93904630D01*
X77065664Y-93904630D01*
X77083675Y-94144970D01*
X77085054Y-94154123D01*
X77138683Y-94389089D01*
X77141416Y-94397949D01*
X77229465Y-94622293D01*
X77233484Y-94630639D01*
X77353994Y-94839368D01*
X77359200Y-94847004D01*
X77383884Y-94877958D01*
X77395120Y-94885930D01*
X77407179Y-94879266D01*
X78374904Y-93911542D01*
X78381568Y-93899999D01*
X79098431Y-93899999D01*
X79105095Y-93911542D01*
X80072820Y-94879267D01*
X80084877Y-94885931D01*
X80096114Y-94877958D01*
X80120796Y-94847009D01*
X80126007Y-94839364D01*
X80246515Y-94630639D01*
X80250534Y-94622293D01*
X80338583Y-94397949D01*
X80341316Y-94389089D01*
X80394945Y-94154123D01*
X80396324Y-94144970D01*
X80414336Y-93904630D01*
X80414336Y-93895370D01*
X80396324Y-93655029D01*
X80394945Y-93645876D01*
X80341316Y-93410910D01*
X80338583Y-93402050D01*
X80250534Y-93177706D01*
X80246515Y-93169360D01*
X80126009Y-92960637D01*
X80120791Y-92952985D01*
X80096114Y-92922041D01*
X80084877Y-92914067D01*
X80072820Y-92920731D01*
X79105095Y-93888457D01*
X79098431Y-93899999D01*
X78381568Y-93899999D01*
X78374904Y-93888457D01*
X77407179Y-92920732D01*
X77395120Y-92914067D01*
X77383885Y-92922040D01*
X77359204Y-92952989D01*
X77353993Y-92960633D01*
X77233484Y-93169360D01*
X77229465Y-93177706D01*
X77141416Y-93402050D01*
X77138683Y-93410910D01*
X77085054Y-93645876D01*
X77083675Y-93655029D01*
X77065664Y-93895370D01*
X77065664Y-93904630D01*
X70129400Y-93904630D01*
X70129400Y-92555202D01*
X77752157Y-92555202D01*
X77758073Y-92564520D01*
X78728457Y-93534904D01*
X78740000Y-93541568D01*
X78751542Y-93534904D01*
X79721925Y-92564520D01*
X79727841Y-92555202D01*
X79720293Y-92547144D01*
X79581183Y-92452301D01*
X79573150Y-92447663D01*
X79356010Y-92343095D01*
X79347399Y-92339715D01*
X79117082Y-92268671D01*
X79108066Y-92266613D01*
X78869734Y-92230691D01*
X78860512Y-92230000D01*
X78619488Y-92230000D01*
X78610265Y-92230691D01*
X78371933Y-92266613D01*
X78362917Y-92268671D01*
X78132600Y-92339715D01*
X78123990Y-92343094D01*
X77906850Y-92447663D01*
X77898817Y-92452301D01*
X77759705Y-92547144D01*
X77752157Y-92555202D01*
X70129400Y-92555202D01*
X70129400Y-88900000D01*
X76548391Y-88900000D01*
X76568804Y-89198424D01*
X76569665Y-89202571D01*
X76569667Y-89202580D01*
X76628798Y-89487132D01*
X76629662Y-89491289D01*
X76631080Y-89495281D01*
X76631083Y-89495289D01*
X76728410Y-89769142D01*
X76729831Y-89773139D01*
X76867447Y-90038725D01*
X77039944Y-90283098D01*
X77244110Y-90501707D01*
X77476142Y-90690479D01*
X77731717Y-90845897D01*
X78006075Y-90965068D01*
X78294104Y-91045769D01*
X78590439Y-91086500D01*
X78885324Y-91086500D01*
X78889561Y-91086500D01*
X79185896Y-91045769D01*
X79473925Y-90965068D01*
X79748283Y-90845897D01*
X80003858Y-90690479D01*
X80235890Y-90501707D01*
X80440056Y-90283098D01*
X80612553Y-90038725D01*
X80750169Y-89773139D01*
X80850338Y-89491289D01*
X80911196Y-89198424D01*
X80931609Y-88900000D01*
X80911196Y-88601576D01*
X80850338Y-88308711D01*
X80750169Y-88026861D01*
X80612553Y-87761275D01*
X80440056Y-87516902D01*
X80297876Y-87364664D01*
X80273145Y-87325518D01*
X80269154Y-87304518D01*
X123060000Y-87304518D01*
X123060353Y-87311114D01*
X123065573Y-87359667D01*
X123069111Y-87374641D01*
X123113547Y-87493777D01*
X123121962Y-87509189D01*
X123197498Y-87610092D01*
X123209907Y-87622501D01*
X123310810Y-87698037D01*
X123326222Y-87706452D01*
X123445358Y-87750888D01*
X123460332Y-87754426D01*
X123508885Y-87759646D01*
X123515482Y-87760000D01*
X124193674Y-87760000D01*
X124206549Y-87756549D01*
X124210000Y-87743674D01*
X124710000Y-87743674D01*
X124713450Y-87756549D01*
X124726326Y-87760000D01*
X125404518Y-87760000D01*
X125411114Y-87759646D01*
X125459667Y-87754426D01*
X125474641Y-87750888D01*
X125593777Y-87706452D01*
X125609189Y-87698037D01*
X125710092Y-87622501D01*
X125722501Y-87610092D01*
X125798037Y-87509189D01*
X125806452Y-87493777D01*
X125850888Y-87374641D01*
X125854426Y-87359667D01*
X125859646Y-87311114D01*
X125860000Y-87304518D01*
X133220000Y-87304518D01*
X133220353Y-87311114D01*
X133225573Y-87359667D01*
X133229111Y-87374641D01*
X133273547Y-87493777D01*
X133281962Y-87509189D01*
X133357498Y-87610092D01*
X133369907Y-87622501D01*
X133470810Y-87698037D01*
X133486222Y-87706452D01*
X133605358Y-87750888D01*
X133620332Y-87754426D01*
X133668885Y-87759646D01*
X133675482Y-87760000D01*
X134353674Y-87760000D01*
X134366549Y-87756549D01*
X134370000Y-87743674D01*
X134870000Y-87743674D01*
X134873450Y-87756549D01*
X134886326Y-87760000D01*
X135564518Y-87760000D01*
X135571114Y-87759646D01*
X135619667Y-87754426D01*
X135634641Y-87750888D01*
X135753777Y-87706452D01*
X135769189Y-87698037D01*
X135870092Y-87622501D01*
X135882501Y-87610092D01*
X135958037Y-87509189D01*
X135966452Y-87493777D01*
X136010888Y-87374641D01*
X136014426Y-87359667D01*
X136019646Y-87311114D01*
X136020000Y-87304518D01*
X143380000Y-87304518D01*
X143380353Y-87311114D01*
X143385573Y-87359667D01*
X143389111Y-87374641D01*
X143433547Y-87493777D01*
X143441962Y-87509189D01*
X143517498Y-87610092D01*
X143529907Y-87622501D01*
X143630810Y-87698037D01*
X143646222Y-87706452D01*
X143765358Y-87750888D01*
X143780332Y-87754426D01*
X143828885Y-87759646D01*
X143835482Y-87760000D01*
X144513674Y-87760000D01*
X144526549Y-87756549D01*
X144530000Y-87743674D01*
X145030000Y-87743674D01*
X145033450Y-87756549D01*
X145046326Y-87760000D01*
X145724518Y-87760000D01*
X145731114Y-87759646D01*
X145779667Y-87754426D01*
X145794641Y-87750888D01*
X145913777Y-87706452D01*
X145929189Y-87698037D01*
X146030092Y-87622501D01*
X146042501Y-87610092D01*
X146118037Y-87509189D01*
X146126452Y-87493777D01*
X146170888Y-87374641D01*
X146174426Y-87359667D01*
X146179646Y-87311114D01*
X146180000Y-87304518D01*
X153540000Y-87304518D01*
X153540353Y-87311114D01*
X153545573Y-87359667D01*
X153549111Y-87374641D01*
X153593547Y-87493777D01*
X153601962Y-87509189D01*
X153677498Y-87610092D01*
X153689907Y-87622501D01*
X153790810Y-87698037D01*
X153806222Y-87706452D01*
X153925358Y-87750888D01*
X153940332Y-87754426D01*
X153988885Y-87759646D01*
X153995482Y-87760000D01*
X154673674Y-87760000D01*
X154686549Y-87756549D01*
X154690000Y-87743674D01*
X155190000Y-87743674D01*
X155193450Y-87756549D01*
X155206326Y-87760000D01*
X155884518Y-87760000D01*
X155891114Y-87759646D01*
X155939667Y-87754426D01*
X155954641Y-87750888D01*
X156073777Y-87706452D01*
X156089189Y-87698037D01*
X156190092Y-87622501D01*
X156202501Y-87610092D01*
X156278037Y-87509189D01*
X156286452Y-87493777D01*
X156330888Y-87374641D01*
X156334426Y-87359667D01*
X156339646Y-87311114D01*
X156340000Y-87304518D01*
X163700000Y-87304518D01*
X163700353Y-87311114D01*
X163705573Y-87359667D01*
X163709111Y-87374641D01*
X163753547Y-87493777D01*
X163761962Y-87509189D01*
X163837498Y-87610092D01*
X163849907Y-87622501D01*
X163950810Y-87698037D01*
X163966222Y-87706452D01*
X164085358Y-87750888D01*
X164100332Y-87754426D01*
X164148885Y-87759646D01*
X164155482Y-87760000D01*
X164833674Y-87760000D01*
X164846549Y-87756549D01*
X164850000Y-87743674D01*
X165350000Y-87743674D01*
X165353450Y-87756549D01*
X165366326Y-87760000D01*
X166044518Y-87760000D01*
X166051114Y-87759646D01*
X166099667Y-87754426D01*
X166114641Y-87750888D01*
X166233777Y-87706452D01*
X166249189Y-87698037D01*
X166350092Y-87622501D01*
X166362501Y-87610092D01*
X166438037Y-87509189D01*
X166446452Y-87493777D01*
X166490888Y-87374641D01*
X166494426Y-87359667D01*
X166499646Y-87311114D01*
X166500000Y-87304518D01*
X166500000Y-86626326D01*
X166496549Y-86613450D01*
X166483674Y-86610000D01*
X165366326Y-86610000D01*
X165353450Y-86613450D01*
X165350000Y-86626326D01*
X165350000Y-87743674D01*
X164850000Y-87743674D01*
X164850000Y-86626326D01*
X164846549Y-86613450D01*
X164833674Y-86610000D01*
X163716326Y-86610000D01*
X163703450Y-86613450D01*
X163700000Y-86626326D01*
X163700000Y-87304518D01*
X156340000Y-87304518D01*
X156340000Y-86626326D01*
X156336549Y-86613450D01*
X156323674Y-86610000D01*
X155206326Y-86610000D01*
X155193450Y-86613450D01*
X155190000Y-86626326D01*
X155190000Y-87743674D01*
X154690000Y-87743674D01*
X154690000Y-86626326D01*
X154686549Y-86613450D01*
X154673674Y-86610000D01*
X153556326Y-86610000D01*
X153543450Y-86613450D01*
X153540000Y-86626326D01*
X153540000Y-87304518D01*
X146180000Y-87304518D01*
X146180000Y-86626326D01*
X146176549Y-86613450D01*
X146163674Y-86610000D01*
X145046326Y-86610000D01*
X145033450Y-86613450D01*
X145030000Y-86626326D01*
X145030000Y-87743674D01*
X144530000Y-87743674D01*
X144530000Y-86626326D01*
X144526549Y-86613450D01*
X144513674Y-86610000D01*
X143396326Y-86610000D01*
X143383450Y-86613450D01*
X143380000Y-86626326D01*
X143380000Y-87304518D01*
X136020000Y-87304518D01*
X136020000Y-86626326D01*
X136016549Y-86613450D01*
X136003674Y-86610000D01*
X134886326Y-86610000D01*
X134873450Y-86613450D01*
X134870000Y-86626326D01*
X134870000Y-87743674D01*
X134370000Y-87743674D01*
X134370000Y-86626326D01*
X134366549Y-86613450D01*
X134353674Y-86610000D01*
X133236326Y-86610000D01*
X133223450Y-86613450D01*
X133220000Y-86626326D01*
X133220000Y-87304518D01*
X125860000Y-87304518D01*
X125860000Y-86626326D01*
X125856549Y-86613450D01*
X125843674Y-86610000D01*
X124726326Y-86610000D01*
X124713450Y-86613450D01*
X124710000Y-86626326D01*
X124710000Y-87743674D01*
X124210000Y-87743674D01*
X124210000Y-86626326D01*
X124206549Y-86613450D01*
X124193674Y-86610000D01*
X123076326Y-86610000D01*
X123063450Y-86613450D01*
X123060000Y-86626326D01*
X123060000Y-87304518D01*
X80269154Y-87304518D01*
X80264500Y-87280028D01*
X80264500Y-85519972D01*
X80273145Y-85474482D01*
X80297876Y-85435336D01*
X80322579Y-85408885D01*
X80440056Y-85283098D01*
X80612553Y-85038725D01*
X80750169Y-84773139D01*
X80850338Y-84491289D01*
X80911196Y-84198424D01*
X80931055Y-83908097D01*
X80941891Y-83865228D01*
X80967081Y-83828886D01*
X88305149Y-76490819D01*
X88345378Y-76463939D01*
X88392831Y-76454500D01*
X90413148Y-76454500D01*
X90449697Y-76460009D01*
X90483000Y-76476046D01*
X90529203Y-76507547D01*
X90774497Y-76625674D01*
X91034657Y-76705923D01*
X91303872Y-76746500D01*
X91571491Y-76746500D01*
X91576128Y-76746500D01*
X91845343Y-76705923D01*
X92105503Y-76625674D01*
X92350797Y-76507547D01*
X92575745Y-76354180D01*
X92775323Y-76168999D01*
X92945072Y-75956140D01*
X93081199Y-75720360D01*
X93180666Y-75466924D01*
X93241248Y-75201494D01*
X93261594Y-74930000D01*
X93241248Y-74658506D01*
X93180666Y-74393076D01*
X93081199Y-74139640D01*
X93078880Y-74135624D01*
X93078878Y-74135619D01*
X92981113Y-73966285D01*
X92964500Y-73904285D01*
X92964500Y-62855689D01*
X92976405Y-62802672D01*
X93009834Y-62759836D01*
X93162252Y-62634752D01*
X93289278Y-62479969D01*
X93383667Y-62303380D01*
X93441792Y-62111769D01*
X93456500Y-61962434D01*
X93456500Y-60068500D01*
X93473113Y-60006500D01*
X93518500Y-59961113D01*
X93580500Y-59944500D01*
X98936930Y-59944500D01*
X99121441Y-59944500D01*
X99951500Y-59944500D01*
X100013500Y-59961113D01*
X100058887Y-60006500D01*
X100075500Y-60068500D01*
X100075500Y-71707169D01*
X100066061Y-71754622D01*
X100039181Y-71794850D01*
X91092234Y-80741795D01*
X91034536Y-80773687D01*
X91034657Y-80774077D01*
X91032791Y-80774652D01*
X91032788Y-80774653D01*
X91030236Y-80775440D01*
X91030230Y-80775442D01*
X90778927Y-80852959D01*
X90778920Y-80852961D01*
X90774497Y-80854326D01*
X90770327Y-80856333D01*
X90770317Y-80856338D01*
X90533385Y-80970439D01*
X90529203Y-80972453D01*
X90525380Y-80975058D01*
X90525372Y-80975064D01*
X90308083Y-81123210D01*
X90304255Y-81125820D01*
X90300863Y-81128966D01*
X90300857Y-81128972D01*
X90108078Y-81307845D01*
X90104677Y-81311001D01*
X90101788Y-81314623D01*
X90101784Y-81314628D01*
X89937820Y-81520233D01*
X89934928Y-81523860D01*
X89932609Y-81527875D01*
X89932608Y-81527878D01*
X89801121Y-81755619D01*
X89801113Y-81755634D01*
X89798801Y-81759640D01*
X89797107Y-81763954D01*
X89797105Y-81763960D01*
X89701028Y-82008757D01*
X89701023Y-82008770D01*
X89699334Y-82013076D01*
X89698303Y-82017590D01*
X89698301Y-82017599D01*
X89639784Y-82273981D01*
X89639782Y-82273991D01*
X89638752Y-82278506D01*
X89618406Y-82550000D01*
X89638752Y-82821494D01*
X89639782Y-82826010D01*
X89639784Y-82826018D01*
X89684766Y-83023098D01*
X89699334Y-83086924D01*
X89701025Y-83091233D01*
X89701028Y-83091242D01*
X89788011Y-83312867D01*
X89798801Y-83340360D01*
X89801116Y-83344370D01*
X89801121Y-83344380D01*
X89896134Y-83508947D01*
X89934928Y-83576140D01*
X90104677Y-83788999D01*
X90304255Y-83974180D01*
X90529203Y-84127547D01*
X90774497Y-84245674D01*
X91034657Y-84325923D01*
X91303872Y-84366500D01*
X91571491Y-84366500D01*
X91576128Y-84366500D01*
X91845343Y-84325923D01*
X92105503Y-84245674D01*
X92350797Y-84127547D01*
X92575745Y-83974180D01*
X92741912Y-83820000D01*
X122538605Y-83820000D01*
X122538921Y-83824418D01*
X122557845Y-84089020D01*
X122557846Y-84089029D01*
X122558162Y-84093443D01*
X122559102Y-84097768D01*
X122559104Y-84097776D01*
X122580078Y-84194191D01*
X122616435Y-84361320D01*
X122712238Y-84618176D01*
X122714358Y-84622058D01*
X122714361Y-84622065D01*
X122841493Y-84854891D01*
X122841497Y-84854898D01*
X122843620Y-84858785D01*
X122846277Y-84862334D01*
X123005254Y-85074703D01*
X123005259Y-85074709D01*
X123007907Y-85078246D01*
X123011037Y-85081376D01*
X123011039Y-85081378D01*
X123068698Y-85139037D01*
X123102183Y-85200359D01*
X123097199Y-85270050D01*
X123069112Y-85345354D01*
X123065573Y-85360332D01*
X123060353Y-85408885D01*
X123060000Y-85415482D01*
X123060000Y-86093674D01*
X123063450Y-86106549D01*
X123076326Y-86110000D01*
X125843674Y-86110000D01*
X125856549Y-86106549D01*
X125860000Y-86093674D01*
X125860000Y-85415482D01*
X125859646Y-85408885D01*
X125854426Y-85360332D01*
X125850888Y-85345361D01*
X125822800Y-85270053D01*
X125815017Y-85223768D01*
X125824994Y-85177906D01*
X125851298Y-85139040D01*
X125912093Y-85078246D01*
X126076380Y-84858785D01*
X126207762Y-84618176D01*
X126303565Y-84361320D01*
X126361838Y-84093443D01*
X126381395Y-83820000D01*
X132698605Y-83820000D01*
X132698921Y-83824418D01*
X132717845Y-84089020D01*
X132717846Y-84089029D01*
X132718162Y-84093443D01*
X132719102Y-84097768D01*
X132719104Y-84097776D01*
X132740078Y-84194191D01*
X132776435Y-84361320D01*
X132872238Y-84618176D01*
X132874358Y-84622058D01*
X132874361Y-84622065D01*
X133001493Y-84854891D01*
X133001497Y-84854898D01*
X133003620Y-84858785D01*
X133006277Y-84862334D01*
X133165254Y-85074703D01*
X133165259Y-85074709D01*
X133167907Y-85078246D01*
X133171037Y-85081376D01*
X133171039Y-85081378D01*
X133228698Y-85139037D01*
X133262183Y-85200359D01*
X133257199Y-85270050D01*
X133229112Y-85345354D01*
X133225573Y-85360332D01*
X133220353Y-85408885D01*
X133220000Y-85415482D01*
X133220000Y-86093674D01*
X133223450Y-86106549D01*
X133236326Y-86110000D01*
X136003674Y-86110000D01*
X136016549Y-86106549D01*
X136020000Y-86093674D01*
X136020000Y-85415482D01*
X136019646Y-85408885D01*
X136014426Y-85360332D01*
X136010888Y-85345361D01*
X135982800Y-85270053D01*
X135975017Y-85223768D01*
X135984994Y-85177906D01*
X136011298Y-85139040D01*
X136072093Y-85078246D01*
X136236380Y-84858785D01*
X136367762Y-84618176D01*
X136463565Y-84361320D01*
X136521838Y-84093443D01*
X136541395Y-83820000D01*
X142858605Y-83820000D01*
X142858921Y-83824418D01*
X142877845Y-84089020D01*
X142877846Y-84089029D01*
X142878162Y-84093443D01*
X142879102Y-84097768D01*
X142879104Y-84097776D01*
X142900078Y-84194191D01*
X142936435Y-84361320D01*
X143032238Y-84618176D01*
X143034358Y-84622058D01*
X143034361Y-84622065D01*
X143161493Y-84854891D01*
X143161497Y-84854898D01*
X143163620Y-84858785D01*
X143166277Y-84862334D01*
X143325254Y-85074703D01*
X143325259Y-85074709D01*
X143327907Y-85078246D01*
X143331037Y-85081376D01*
X143331039Y-85081378D01*
X143388698Y-85139037D01*
X143422183Y-85200359D01*
X143417199Y-85270050D01*
X143389112Y-85345354D01*
X143385573Y-85360332D01*
X143380353Y-85408885D01*
X143380000Y-85415482D01*
X143380000Y-86093674D01*
X143383450Y-86106549D01*
X143396326Y-86110000D01*
X146163674Y-86110000D01*
X146176549Y-86106549D01*
X146180000Y-86093674D01*
X146180000Y-85415482D01*
X146179646Y-85408885D01*
X146174426Y-85360332D01*
X146170888Y-85345361D01*
X146142800Y-85270053D01*
X146135017Y-85223768D01*
X146144994Y-85177906D01*
X146171298Y-85139040D01*
X146232093Y-85078246D01*
X146396380Y-84858785D01*
X146527762Y-84618176D01*
X146623565Y-84361320D01*
X146681838Y-84093443D01*
X146701395Y-83820000D01*
X153018605Y-83820000D01*
X153018921Y-83824418D01*
X153037845Y-84089020D01*
X153037846Y-84089029D01*
X153038162Y-84093443D01*
X153039102Y-84097768D01*
X153039104Y-84097776D01*
X153060078Y-84194191D01*
X153096435Y-84361320D01*
X153192238Y-84618176D01*
X153194358Y-84622058D01*
X153194361Y-84622065D01*
X153321493Y-84854891D01*
X153321497Y-84854898D01*
X153323620Y-84858785D01*
X153326277Y-84862334D01*
X153485254Y-85074703D01*
X153485259Y-85074709D01*
X153487907Y-85078246D01*
X153491037Y-85081376D01*
X153491039Y-85081378D01*
X153548698Y-85139037D01*
X153582183Y-85200359D01*
X153577199Y-85270050D01*
X153549112Y-85345354D01*
X153545573Y-85360332D01*
X153540353Y-85408885D01*
X153540000Y-85415482D01*
X153540000Y-86093674D01*
X153543450Y-86106549D01*
X153556326Y-86110000D01*
X156323674Y-86110000D01*
X156336549Y-86106549D01*
X156340000Y-86093674D01*
X156340000Y-85415482D01*
X156339646Y-85408885D01*
X156334426Y-85360332D01*
X156330888Y-85345361D01*
X156302800Y-85270053D01*
X156295017Y-85223768D01*
X156304994Y-85177906D01*
X156331298Y-85139040D01*
X156392093Y-85078246D01*
X156556380Y-84858785D01*
X156687762Y-84618176D01*
X156783565Y-84361320D01*
X156841838Y-84093443D01*
X156861395Y-83820000D01*
X163178605Y-83820000D01*
X163178921Y-83824418D01*
X163197845Y-84089020D01*
X163197846Y-84089029D01*
X163198162Y-84093443D01*
X163199102Y-84097768D01*
X163199104Y-84097776D01*
X163220078Y-84194191D01*
X163256435Y-84361320D01*
X163352238Y-84618176D01*
X163354358Y-84622058D01*
X163354361Y-84622065D01*
X163481493Y-84854891D01*
X163481497Y-84854898D01*
X163483620Y-84858785D01*
X163486277Y-84862334D01*
X163645254Y-85074703D01*
X163645259Y-85074709D01*
X163647907Y-85078246D01*
X163651037Y-85081376D01*
X163651039Y-85081378D01*
X163708698Y-85139037D01*
X163742183Y-85200359D01*
X163737199Y-85270050D01*
X163709112Y-85345354D01*
X163705573Y-85360332D01*
X163700353Y-85408885D01*
X163700000Y-85415482D01*
X163700000Y-86093674D01*
X163703450Y-86106549D01*
X163716326Y-86110000D01*
X166483674Y-86110000D01*
X166496549Y-86106549D01*
X166500000Y-86093674D01*
X166500000Y-85415482D01*
X166499646Y-85408885D01*
X166494426Y-85360332D01*
X166490888Y-85345361D01*
X166462800Y-85270053D01*
X166455017Y-85223768D01*
X166464994Y-85177906D01*
X166491298Y-85139040D01*
X166552093Y-85078246D01*
X166716380Y-84858785D01*
X166847762Y-84618176D01*
X166943565Y-84361320D01*
X167001838Y-84093443D01*
X167021395Y-83820000D01*
X167001838Y-83546557D01*
X166943565Y-83278680D01*
X166847762Y-83021824D01*
X166738374Y-82821494D01*
X166718506Y-82785108D01*
X166718504Y-82785105D01*
X166716380Y-82781215D01*
X166713722Y-82777665D01*
X166713718Y-82777658D01*
X166649233Y-82691516D01*
X166630846Y-82656365D01*
X166624500Y-82617206D01*
X166624500Y-73415715D01*
X166641113Y-73353715D01*
X166683832Y-73279724D01*
X166741199Y-73180360D01*
X166840666Y-72926924D01*
X166901248Y-72661494D01*
X166921594Y-72390000D01*
X166901248Y-72118506D01*
X166840666Y-71853076D01*
X166741199Y-71599640D01*
X166738880Y-71595624D01*
X166738878Y-71595619D01*
X166625273Y-71398850D01*
X166605072Y-71363860D01*
X166435323Y-71151001D01*
X166235745Y-70965820D01*
X166010797Y-70812453D01*
X165897695Y-70757986D01*
X165769682Y-70696338D01*
X165769676Y-70696335D01*
X165765503Y-70694326D01*
X165761074Y-70692959D01*
X165761072Y-70692959D01*
X165509773Y-70615443D01*
X165509767Y-70615441D01*
X165505343Y-70614077D01*
X165500767Y-70613387D01*
X165500757Y-70613385D01*
X165240713Y-70574191D01*
X165240712Y-70574190D01*
X165236128Y-70573500D01*
X164963872Y-70573500D01*
X164959288Y-70574190D01*
X164959286Y-70574191D01*
X164699242Y-70613385D01*
X164699229Y-70613387D01*
X164694657Y-70614077D01*
X164690235Y-70615440D01*
X164690226Y-70615443D01*
X164438927Y-70692959D01*
X164438920Y-70692961D01*
X164434497Y-70694326D01*
X164430327Y-70696333D01*
X164430317Y-70696338D01*
X164193385Y-70810439D01*
X164189203Y-70812453D01*
X164185380Y-70815058D01*
X164185372Y-70815064D01*
X163968083Y-70963210D01*
X163964255Y-70965820D01*
X163960863Y-70968966D01*
X163960857Y-70968972D01*
X163768078Y-71147845D01*
X163764677Y-71151001D01*
X163761788Y-71154623D01*
X163761784Y-71154628D01*
X163597820Y-71360233D01*
X163594928Y-71363860D01*
X163592609Y-71367875D01*
X163592608Y-71367878D01*
X163461121Y-71595619D01*
X163461113Y-71595634D01*
X163458801Y-71599640D01*
X163457107Y-71603954D01*
X163457105Y-71603960D01*
X163361028Y-71848757D01*
X163361023Y-71848770D01*
X163359334Y-71853076D01*
X163358303Y-71857590D01*
X163358301Y-71857599D01*
X163299784Y-72113981D01*
X163299782Y-72113991D01*
X163298752Y-72118506D01*
X163278406Y-72390000D01*
X163278753Y-72394630D01*
X163294136Y-72599906D01*
X163298752Y-72661494D01*
X163299782Y-72666010D01*
X163299784Y-72666018D01*
X163358301Y-72922400D01*
X163359334Y-72926924D01*
X163361025Y-72931233D01*
X163361028Y-72931242D01*
X163443980Y-73142597D01*
X163458801Y-73180360D01*
X163461116Y-73184370D01*
X163461121Y-73184380D01*
X163558887Y-73353715D01*
X163575500Y-73415715D01*
X163575500Y-82617206D01*
X163569154Y-82656365D01*
X163550767Y-82691516D01*
X163486281Y-82777658D01*
X163486270Y-82777674D01*
X163483620Y-82781215D01*
X163481501Y-82785094D01*
X163481493Y-82785108D01*
X163354361Y-83017934D01*
X163354355Y-83017946D01*
X163352238Y-83021824D01*
X163350692Y-83025967D01*
X163350690Y-83025973D01*
X163257980Y-83274536D01*
X163257977Y-83274544D01*
X163256435Y-83278680D01*
X163255494Y-83283002D01*
X163255494Y-83283005D01*
X163199104Y-83542223D01*
X163199102Y-83542233D01*
X163198162Y-83546557D01*
X163197846Y-83550968D01*
X163197845Y-83550979D01*
X163193924Y-83605808D01*
X163178605Y-83820000D01*
X156861395Y-83820000D01*
X156841838Y-83546557D01*
X156783565Y-83278680D01*
X156687762Y-83021824D01*
X156578374Y-82821494D01*
X156558506Y-82785108D01*
X156558504Y-82785105D01*
X156556380Y-82781215D01*
X156553722Y-82777665D01*
X156553718Y-82777658D01*
X156489233Y-82691516D01*
X156470846Y-82656365D01*
X156464500Y-82617206D01*
X156464500Y-73415715D01*
X156481113Y-73353715D01*
X156523832Y-73279724D01*
X156581199Y-73180360D01*
X156680666Y-72926924D01*
X156741248Y-72661494D01*
X156761594Y-72390000D01*
X156741248Y-72118506D01*
X156680666Y-71853076D01*
X156581199Y-71599640D01*
X156578880Y-71595624D01*
X156578878Y-71595619D01*
X156465273Y-71398850D01*
X156445072Y-71363860D01*
X156275323Y-71151001D01*
X156075745Y-70965820D01*
X155850797Y-70812453D01*
X155737695Y-70757986D01*
X155609682Y-70696338D01*
X155609676Y-70696335D01*
X155605503Y-70694326D01*
X155601074Y-70692959D01*
X155601072Y-70692959D01*
X155349773Y-70615443D01*
X155349767Y-70615441D01*
X155345343Y-70614077D01*
X155340767Y-70613387D01*
X155340757Y-70613385D01*
X155080713Y-70574191D01*
X155080712Y-70574190D01*
X155076128Y-70573500D01*
X154803872Y-70573500D01*
X154799288Y-70574190D01*
X154799286Y-70574191D01*
X154539242Y-70613385D01*
X154539229Y-70613387D01*
X154534657Y-70614077D01*
X154530235Y-70615440D01*
X154530226Y-70615443D01*
X154278927Y-70692959D01*
X154278920Y-70692961D01*
X154274497Y-70694326D01*
X154270327Y-70696333D01*
X154270317Y-70696338D01*
X154033385Y-70810439D01*
X154029203Y-70812453D01*
X154025380Y-70815058D01*
X154025372Y-70815064D01*
X153808083Y-70963210D01*
X153804255Y-70965820D01*
X153800863Y-70968966D01*
X153800857Y-70968972D01*
X153608078Y-71147845D01*
X153604677Y-71151001D01*
X153601788Y-71154623D01*
X153601784Y-71154628D01*
X153437820Y-71360233D01*
X153434928Y-71363860D01*
X153432609Y-71367875D01*
X153432608Y-71367878D01*
X153301121Y-71595619D01*
X153301113Y-71595634D01*
X153298801Y-71599640D01*
X153297107Y-71603954D01*
X153297105Y-71603960D01*
X153201028Y-71848757D01*
X153201023Y-71848770D01*
X153199334Y-71853076D01*
X153198303Y-71857590D01*
X153198301Y-71857599D01*
X153139784Y-72113981D01*
X153139782Y-72113991D01*
X153138752Y-72118506D01*
X153118406Y-72390000D01*
X153118753Y-72394630D01*
X153134136Y-72599906D01*
X153138752Y-72661494D01*
X153139782Y-72666010D01*
X153139784Y-72666018D01*
X153198301Y-72922400D01*
X153199334Y-72926924D01*
X153201025Y-72931233D01*
X153201028Y-72931242D01*
X153283980Y-73142597D01*
X153298801Y-73180360D01*
X153301116Y-73184370D01*
X153301121Y-73184380D01*
X153398887Y-73353715D01*
X153415500Y-73415715D01*
X153415500Y-82617206D01*
X153409154Y-82656365D01*
X153390767Y-82691516D01*
X153326281Y-82777658D01*
X153326270Y-82777674D01*
X153323620Y-82781215D01*
X153321501Y-82785094D01*
X153321493Y-82785108D01*
X153194361Y-83017934D01*
X153194355Y-83017946D01*
X153192238Y-83021824D01*
X153190692Y-83025967D01*
X153190690Y-83025973D01*
X153097980Y-83274536D01*
X153097977Y-83274544D01*
X153096435Y-83278680D01*
X153095494Y-83283002D01*
X153095494Y-83283005D01*
X153039104Y-83542223D01*
X153039102Y-83542233D01*
X153038162Y-83546557D01*
X153037846Y-83550968D01*
X153037845Y-83550979D01*
X153033924Y-83605808D01*
X153018605Y-83820000D01*
X146701395Y-83820000D01*
X146681838Y-83546557D01*
X146623565Y-83278680D01*
X146527762Y-83021824D01*
X146418374Y-82821494D01*
X146398506Y-82785108D01*
X146398504Y-82785105D01*
X146396380Y-82781215D01*
X146393722Y-82777665D01*
X146393718Y-82777658D01*
X146329233Y-82691516D01*
X146310846Y-82656365D01*
X146304500Y-82617206D01*
X146304500Y-73415715D01*
X146321113Y-73353715D01*
X146363832Y-73279724D01*
X146421199Y-73180360D01*
X146520666Y-72926924D01*
X146581248Y-72661494D01*
X146601594Y-72390000D01*
X146581248Y-72118506D01*
X146520666Y-71853076D01*
X146421199Y-71599640D01*
X146418880Y-71595624D01*
X146418878Y-71595619D01*
X146305273Y-71398850D01*
X146285072Y-71363860D01*
X146115323Y-71151001D01*
X145915745Y-70965820D01*
X145690797Y-70812453D01*
X145577695Y-70757986D01*
X145449682Y-70696338D01*
X145449676Y-70696335D01*
X145445503Y-70694326D01*
X145441074Y-70692959D01*
X145441072Y-70692959D01*
X145189773Y-70615443D01*
X145189767Y-70615441D01*
X145185343Y-70614077D01*
X145180767Y-70613387D01*
X145180757Y-70613385D01*
X144920713Y-70574191D01*
X144920712Y-70574190D01*
X144916128Y-70573500D01*
X144643872Y-70573500D01*
X144639288Y-70574190D01*
X144639286Y-70574191D01*
X144379242Y-70613385D01*
X144379229Y-70613387D01*
X144374657Y-70614077D01*
X144370235Y-70615440D01*
X144370226Y-70615443D01*
X144118927Y-70692959D01*
X144118920Y-70692961D01*
X144114497Y-70694326D01*
X144110327Y-70696333D01*
X144110317Y-70696338D01*
X143873385Y-70810439D01*
X143869203Y-70812453D01*
X143865380Y-70815058D01*
X143865372Y-70815064D01*
X143648083Y-70963210D01*
X143644255Y-70965820D01*
X143640863Y-70968966D01*
X143640857Y-70968972D01*
X143448078Y-71147845D01*
X143444677Y-71151001D01*
X143441788Y-71154623D01*
X143441784Y-71154628D01*
X143277820Y-71360233D01*
X143274928Y-71363860D01*
X143272609Y-71367875D01*
X143272608Y-71367878D01*
X143141121Y-71595619D01*
X143141113Y-71595634D01*
X143138801Y-71599640D01*
X143137107Y-71603954D01*
X143137105Y-71603960D01*
X143041028Y-71848757D01*
X143041023Y-71848770D01*
X143039334Y-71853076D01*
X143038303Y-71857590D01*
X143038301Y-71857599D01*
X142979784Y-72113981D01*
X142979782Y-72113991D01*
X142978752Y-72118506D01*
X142958406Y-72390000D01*
X142958753Y-72394630D01*
X142974136Y-72599906D01*
X142978752Y-72661494D01*
X142979782Y-72666010D01*
X142979784Y-72666018D01*
X143038301Y-72922400D01*
X143039334Y-72926924D01*
X143041025Y-72931233D01*
X143041028Y-72931242D01*
X143123980Y-73142597D01*
X143138801Y-73180360D01*
X143141116Y-73184370D01*
X143141121Y-73184380D01*
X143238887Y-73353715D01*
X143255500Y-73415715D01*
X143255500Y-82617206D01*
X143249154Y-82656365D01*
X143230767Y-82691516D01*
X143166281Y-82777658D01*
X143166270Y-82777674D01*
X143163620Y-82781215D01*
X143161501Y-82785094D01*
X143161493Y-82785108D01*
X143034361Y-83017934D01*
X143034355Y-83017946D01*
X143032238Y-83021824D01*
X143030692Y-83025967D01*
X143030690Y-83025973D01*
X142937980Y-83274536D01*
X142937977Y-83274544D01*
X142936435Y-83278680D01*
X142935494Y-83283002D01*
X142935494Y-83283005D01*
X142879104Y-83542223D01*
X142879102Y-83542233D01*
X142878162Y-83546557D01*
X142877846Y-83550968D01*
X142877845Y-83550979D01*
X142873924Y-83605808D01*
X142858605Y-83820000D01*
X136541395Y-83820000D01*
X136521838Y-83546557D01*
X136463565Y-83278680D01*
X136367762Y-83021824D01*
X136258374Y-82821494D01*
X136238506Y-82785108D01*
X136238504Y-82785105D01*
X136236380Y-82781215D01*
X136233722Y-82777665D01*
X136233718Y-82777658D01*
X136169233Y-82691516D01*
X136150846Y-82656365D01*
X136144500Y-82617206D01*
X136144500Y-73415715D01*
X136161113Y-73353715D01*
X136203832Y-73279724D01*
X136261199Y-73180360D01*
X136360666Y-72926924D01*
X136421248Y-72661494D01*
X136441594Y-72390000D01*
X136421248Y-72118506D01*
X136360666Y-71853076D01*
X136261199Y-71599640D01*
X136258880Y-71595624D01*
X136258878Y-71595619D01*
X136145273Y-71398850D01*
X136125072Y-71363860D01*
X135955323Y-71151001D01*
X135755745Y-70965820D01*
X135530797Y-70812453D01*
X135417695Y-70757986D01*
X135289682Y-70696338D01*
X135289676Y-70696335D01*
X135285503Y-70694326D01*
X135281074Y-70692959D01*
X135281072Y-70692959D01*
X135029773Y-70615443D01*
X135029767Y-70615441D01*
X135025343Y-70614077D01*
X135020767Y-70613387D01*
X135020757Y-70613385D01*
X134760713Y-70574191D01*
X134760712Y-70574190D01*
X134756128Y-70573500D01*
X134483872Y-70573500D01*
X134479288Y-70574190D01*
X134479286Y-70574191D01*
X134219242Y-70613385D01*
X134219229Y-70613387D01*
X134214657Y-70614077D01*
X134210235Y-70615440D01*
X134210226Y-70615443D01*
X133958927Y-70692959D01*
X133958920Y-70692961D01*
X133954497Y-70694326D01*
X133950327Y-70696333D01*
X133950317Y-70696338D01*
X133713385Y-70810439D01*
X133709203Y-70812453D01*
X133705380Y-70815058D01*
X133705372Y-70815064D01*
X133488083Y-70963210D01*
X133484255Y-70965820D01*
X133480863Y-70968966D01*
X133480857Y-70968972D01*
X133288078Y-71147845D01*
X133284677Y-71151001D01*
X133281788Y-71154623D01*
X133281784Y-71154628D01*
X133117820Y-71360233D01*
X133114928Y-71363860D01*
X133112609Y-71367875D01*
X133112608Y-71367878D01*
X132981121Y-71595619D01*
X132981113Y-71595634D01*
X132978801Y-71599640D01*
X132977107Y-71603954D01*
X132977105Y-71603960D01*
X132881028Y-71848757D01*
X132881023Y-71848770D01*
X132879334Y-71853076D01*
X132878303Y-71857590D01*
X132878301Y-71857599D01*
X132819784Y-72113981D01*
X132819782Y-72113991D01*
X132818752Y-72118506D01*
X132798406Y-72390000D01*
X132798753Y-72394630D01*
X132814136Y-72599906D01*
X132818752Y-72661494D01*
X132819782Y-72666010D01*
X132819784Y-72666018D01*
X132878301Y-72922400D01*
X132879334Y-72926924D01*
X132881025Y-72931233D01*
X132881028Y-72931242D01*
X132963980Y-73142597D01*
X132978801Y-73180360D01*
X132981116Y-73184370D01*
X132981121Y-73184380D01*
X133078887Y-73353715D01*
X133095500Y-73415715D01*
X133095500Y-82617206D01*
X133089154Y-82656365D01*
X133070767Y-82691516D01*
X133006281Y-82777658D01*
X133006270Y-82777674D01*
X133003620Y-82781215D01*
X133001501Y-82785094D01*
X133001493Y-82785108D01*
X132874361Y-83017934D01*
X132874355Y-83017946D01*
X132872238Y-83021824D01*
X132870692Y-83025967D01*
X132870690Y-83025973D01*
X132777980Y-83274536D01*
X132777977Y-83274544D01*
X132776435Y-83278680D01*
X132775494Y-83283002D01*
X132775494Y-83283005D01*
X132719104Y-83542223D01*
X132719102Y-83542233D01*
X132718162Y-83546557D01*
X132717846Y-83550968D01*
X132717845Y-83550979D01*
X132713924Y-83605808D01*
X132698605Y-83820000D01*
X126381395Y-83820000D01*
X126361838Y-83546557D01*
X126303565Y-83278680D01*
X126207762Y-83021824D01*
X126098374Y-82821494D01*
X126078506Y-82785108D01*
X126078504Y-82785105D01*
X126076380Y-82781215D01*
X126073722Y-82777665D01*
X126073718Y-82777658D01*
X126009233Y-82691516D01*
X125990846Y-82656365D01*
X125984500Y-82617206D01*
X125984500Y-73415715D01*
X126001113Y-73353715D01*
X126043832Y-73279724D01*
X126101199Y-73180360D01*
X126200666Y-72926924D01*
X126261248Y-72661494D01*
X126281594Y-72390000D01*
X126261248Y-72118506D01*
X126200666Y-71853076D01*
X126101199Y-71599640D01*
X126098880Y-71595624D01*
X126098878Y-71595619D01*
X125985273Y-71398850D01*
X125965072Y-71363860D01*
X125795323Y-71151001D01*
X125595745Y-70965820D01*
X125370797Y-70812453D01*
X125257695Y-70757986D01*
X125129682Y-70696338D01*
X125129676Y-70696335D01*
X125125503Y-70694326D01*
X125121074Y-70692959D01*
X125121072Y-70692959D01*
X124869773Y-70615443D01*
X124869767Y-70615441D01*
X124865343Y-70614077D01*
X124860767Y-70613387D01*
X124860757Y-70613385D01*
X124600713Y-70574191D01*
X124600712Y-70574190D01*
X124596128Y-70573500D01*
X124323872Y-70573500D01*
X124319288Y-70574190D01*
X124319286Y-70574191D01*
X124059242Y-70613385D01*
X124059229Y-70613387D01*
X124054657Y-70614077D01*
X124050235Y-70615440D01*
X124050226Y-70615443D01*
X123798927Y-70692959D01*
X123798920Y-70692961D01*
X123794497Y-70694326D01*
X123790327Y-70696333D01*
X123790317Y-70696338D01*
X123553385Y-70810439D01*
X123549203Y-70812453D01*
X123545380Y-70815058D01*
X123545372Y-70815064D01*
X123328083Y-70963210D01*
X123324255Y-70965820D01*
X123320863Y-70968966D01*
X123320857Y-70968972D01*
X123128078Y-71147845D01*
X123124677Y-71151001D01*
X123121788Y-71154623D01*
X123121784Y-71154628D01*
X122957820Y-71360233D01*
X122954928Y-71363860D01*
X122952609Y-71367875D01*
X122952608Y-71367878D01*
X122821121Y-71595619D01*
X122821113Y-71595634D01*
X122818801Y-71599640D01*
X122817107Y-71603954D01*
X122817105Y-71603960D01*
X122721028Y-71848757D01*
X122721023Y-71848770D01*
X122719334Y-71853076D01*
X122718303Y-71857590D01*
X122718301Y-71857599D01*
X122659784Y-72113981D01*
X122659782Y-72113991D01*
X122658752Y-72118506D01*
X122638406Y-72390000D01*
X122638753Y-72394630D01*
X122654136Y-72599906D01*
X122658752Y-72661494D01*
X122659782Y-72666010D01*
X122659784Y-72666018D01*
X122718301Y-72922400D01*
X122719334Y-72926924D01*
X122721025Y-72931233D01*
X122721028Y-72931242D01*
X122803980Y-73142597D01*
X122818801Y-73180360D01*
X122821116Y-73184370D01*
X122821121Y-73184380D01*
X122918887Y-73353715D01*
X122935500Y-73415715D01*
X122935500Y-82617206D01*
X122929154Y-82656365D01*
X122910767Y-82691516D01*
X122846281Y-82777658D01*
X122846270Y-82777674D01*
X122843620Y-82781215D01*
X122841501Y-82785094D01*
X122841493Y-82785108D01*
X122714361Y-83017934D01*
X122714355Y-83017946D01*
X122712238Y-83021824D01*
X122710692Y-83025967D01*
X122710690Y-83025973D01*
X122617980Y-83274536D01*
X122617977Y-83274544D01*
X122616435Y-83278680D01*
X122615494Y-83283002D01*
X122615494Y-83283005D01*
X122559104Y-83542223D01*
X122559102Y-83542233D01*
X122558162Y-83546557D01*
X122557846Y-83550968D01*
X122557845Y-83550979D01*
X122553924Y-83605808D01*
X122538605Y-83820000D01*
X92741912Y-83820000D01*
X92775323Y-83788999D01*
X92945072Y-83576140D01*
X93081199Y-83340360D01*
X93180666Y-83086924D01*
X93208685Y-82964160D01*
X93241892Y-82904075D01*
X98907264Y-77238703D01*
X105958217Y-77238703D01*
X105965650Y-77246814D01*
X106023077Y-77287025D01*
X106032427Y-77292423D01*
X106228768Y-77383979D01*
X106238902Y-77387667D01*
X106448162Y-77443739D01*
X106458793Y-77445613D01*
X106674605Y-77464494D01*
X106685395Y-77464494D01*
X106901206Y-77445613D01*
X106911837Y-77443739D01*
X107121097Y-77387667D01*
X107131231Y-77383979D01*
X107327575Y-77292422D01*
X107336920Y-77287026D01*
X107348806Y-77278703D01*
X116118217Y-77278703D01*
X116125650Y-77286814D01*
X116183077Y-77327025D01*
X116192427Y-77332423D01*
X116388768Y-77423979D01*
X116398902Y-77427667D01*
X116608162Y-77483739D01*
X116618793Y-77485613D01*
X116834605Y-77504494D01*
X116845395Y-77504494D01*
X117061206Y-77485613D01*
X117071837Y-77483739D01*
X117281097Y-77427667D01*
X117291231Y-77423979D01*
X117487575Y-77332422D01*
X117496920Y-77327026D01*
X117554348Y-77286814D01*
X117561780Y-77278703D01*
X117555867Y-77269421D01*
X116851541Y-76565095D01*
X116839998Y-76558431D01*
X116828456Y-76565095D01*
X116124128Y-77269424D01*
X116118217Y-77278703D01*
X107348806Y-77278703D01*
X107394348Y-77246814D01*
X107401780Y-77238703D01*
X107395867Y-77229421D01*
X106691542Y-76525095D01*
X106680000Y-76518431D01*
X106668457Y-76525095D01*
X105964128Y-77229424D01*
X105958217Y-77238703D01*
X98907264Y-77238703D01*
X102666276Y-73479691D01*
X102667959Y-73478041D01*
X102744817Y-73404220D01*
X102788837Y-73345637D01*
X102793486Y-73339824D01*
X102840970Y-73284003D01*
X102861673Y-73249753D01*
X102868647Y-73239430D01*
X102892684Y-73207444D01*
X102926735Y-73142562D01*
X102930391Y-73136080D01*
X102968308Y-73073361D01*
X102983246Y-73036243D01*
X102988479Y-73024920D01*
X103007072Y-72989497D01*
X103030269Y-72920011D01*
X103032854Y-72912985D01*
X103058338Y-72849666D01*
X103058339Y-72849662D01*
X103060208Y-72845019D01*
X103069001Y-72805973D01*
X103072342Y-72793987D01*
X103085017Y-72756024D01*
X103096773Y-72683676D01*
X103098184Y-72676391D01*
X103114288Y-72604893D01*
X103116703Y-72564951D01*
X103118083Y-72552549D01*
X103123697Y-72518008D01*
X103124500Y-72513070D01*
X103124500Y-72439824D01*
X103124726Y-72432337D01*
X103128848Y-72364188D01*
X103129150Y-72359201D01*
X103125127Y-72319393D01*
X103124500Y-72306929D01*
X103124500Y-60068500D01*
X103141113Y-60006500D01*
X103186500Y-59961113D01*
X103248500Y-59944500D01*
X105031500Y-59944500D01*
X105093500Y-59961113D01*
X105138887Y-60006500D01*
X105155500Y-60068500D01*
X105155500Y-72634285D01*
X105138887Y-72696285D01*
X105041121Y-72865619D01*
X105041113Y-72865634D01*
X105038801Y-72869640D01*
X105037107Y-72873954D01*
X105037105Y-72873960D01*
X104941028Y-73118757D01*
X104941023Y-73118770D01*
X104939334Y-73123076D01*
X104938303Y-73127590D01*
X104938301Y-73127599D01*
X104879784Y-73383981D01*
X104879782Y-73383991D01*
X104878752Y-73388506D01*
X104878405Y-73393131D01*
X104878405Y-73393134D01*
X104870776Y-73494933D01*
X104858406Y-73660000D01*
X104861750Y-73704619D01*
X104876504Y-73901504D01*
X104878752Y-73931494D01*
X104879782Y-73936010D01*
X104879784Y-73936018D01*
X104926259Y-74139640D01*
X104939334Y-74196924D01*
X104941025Y-74201233D01*
X104941028Y-74201242D01*
X105037105Y-74446039D01*
X105038801Y-74450360D01*
X105041116Y-74454370D01*
X105041121Y-74454380D01*
X105098041Y-74552968D01*
X105174928Y-74686140D01*
X105344677Y-74898999D01*
X105544255Y-75084180D01*
X105548083Y-75086790D01*
X105548091Y-75086796D01*
X105644953Y-75152836D01*
X105687044Y-75201952D01*
X105698673Y-75265583D01*
X105676676Y-75326412D01*
X105552970Y-75503081D01*
X105547579Y-75512419D01*
X105456020Y-75708768D01*
X105452332Y-75718902D01*
X105396260Y-75928162D01*
X105394386Y-75938793D01*
X105375506Y-76154605D01*
X105375506Y-76165395D01*
X105394386Y-76381206D01*
X105396260Y-76391837D01*
X105452332Y-76601097D01*
X105456020Y-76611231D01*
X105547576Y-76807572D01*
X105552974Y-76816922D01*
X105593184Y-76874348D01*
X105601295Y-76881781D01*
X105610574Y-76875870D01*
X106592318Y-75894127D01*
X106647905Y-75862033D01*
X106712093Y-75862033D01*
X106767680Y-75894127D01*
X107749421Y-76875867D01*
X107758703Y-76881780D01*
X107766814Y-76874348D01*
X107807026Y-76816920D01*
X107812422Y-76807575D01*
X107903979Y-76611231D01*
X107907667Y-76601097D01*
X107963739Y-76391837D01*
X107965613Y-76381206D01*
X107984494Y-76165395D01*
X107984494Y-76154605D01*
X107965613Y-75938793D01*
X107963739Y-75928162D01*
X107907667Y-75718902D01*
X107903979Y-75708768D01*
X107812420Y-75512419D01*
X107807032Y-75503087D01*
X107683322Y-75326412D01*
X107661325Y-75265582D01*
X107672955Y-75201951D01*
X107715043Y-75152837D01*
X107815745Y-75084180D01*
X108015323Y-74898999D01*
X108185072Y-74686140D01*
X108321199Y-74450360D01*
X108420666Y-74196924D01*
X108481248Y-73931494D01*
X108501594Y-73660000D01*
X108481248Y-73388506D01*
X108420666Y-73123076D01*
X108321199Y-72869640D01*
X108318880Y-72865624D01*
X108318878Y-72865619D01*
X108221113Y-72696285D01*
X108204500Y-72634285D01*
X108204500Y-60068500D01*
X108221113Y-60006500D01*
X108266500Y-59961113D01*
X108328500Y-59944500D01*
X115191500Y-59944500D01*
X115253500Y-59961113D01*
X115298887Y-60006500D01*
X115315500Y-60068500D01*
X115315500Y-72136119D01*
X115308252Y-72177893D01*
X115287354Y-72214783D01*
X115194589Y-72327817D01*
X115194581Y-72327827D01*
X115190722Y-72332531D01*
X115187852Y-72337898D01*
X115187846Y-72337909D01*
X115099203Y-72503749D01*
X115099200Y-72503756D01*
X115096333Y-72509120D01*
X115094569Y-72514933D01*
X115094566Y-72514942D01*
X115039975Y-72694903D01*
X115039973Y-72694911D01*
X115038208Y-72700731D01*
X115037611Y-72706783D01*
X115037610Y-72706793D01*
X115023798Y-72847031D01*
X115023797Y-72847049D01*
X115023500Y-72850066D01*
X115023500Y-74549934D01*
X115023797Y-74552951D01*
X115023798Y-74552968D01*
X115037610Y-74693206D01*
X115037611Y-74693214D01*
X115038208Y-74699269D01*
X115039973Y-74705090D01*
X115039975Y-74705096D01*
X115094566Y-74885057D01*
X115094568Y-74885062D01*
X115096333Y-74890880D01*
X115099201Y-74896247D01*
X115099203Y-74896250D01*
X115187846Y-75062090D01*
X115187850Y-75062096D01*
X115190722Y-75067469D01*
X115194588Y-75072180D01*
X115194589Y-75072181D01*
X115301087Y-75201951D01*
X115317748Y-75222252D01*
X115472531Y-75349278D01*
X115477906Y-75352151D01*
X115477909Y-75352153D01*
X115632959Y-75435029D01*
X115678599Y-75477003D01*
X115698210Y-75535827D01*
X115686888Y-75596791D01*
X115616022Y-75748763D01*
X115612332Y-75758902D01*
X115556260Y-75968162D01*
X115554386Y-75978793D01*
X115535506Y-76194605D01*
X115535506Y-76205395D01*
X115554386Y-76421206D01*
X115556260Y-76431837D01*
X115612332Y-76641097D01*
X115616020Y-76651231D01*
X115707576Y-76847572D01*
X115712974Y-76856922D01*
X115753184Y-76914348D01*
X115761295Y-76921781D01*
X115770574Y-76915870D01*
X116752318Y-75934127D01*
X116807905Y-75902033D01*
X116872093Y-75902033D01*
X116927680Y-75934127D01*
X117909421Y-76915867D01*
X117918703Y-76921780D01*
X117926814Y-76914348D01*
X117967026Y-76856920D01*
X117972422Y-76847575D01*
X118063979Y-76651231D01*
X118067667Y-76641097D01*
X118123739Y-76431837D01*
X118125613Y-76421206D01*
X118144494Y-76205395D01*
X118144494Y-76194605D01*
X118125613Y-75978793D01*
X118123739Y-75968162D01*
X118067667Y-75758902D01*
X118063979Y-75748768D01*
X117993111Y-75596792D01*
X117981789Y-75535827D01*
X118001400Y-75477003D01*
X118047039Y-75435029D01*
X118207469Y-75349278D01*
X118362252Y-75222252D01*
X118489278Y-75067469D01*
X118583667Y-74890880D01*
X118641792Y-74699269D01*
X118656500Y-74549934D01*
X118656500Y-72850066D01*
X118641792Y-72700731D01*
X118583667Y-72509120D01*
X118558214Y-72461501D01*
X118492153Y-72337909D01*
X118492151Y-72337906D01*
X118489278Y-72332531D01*
X118485412Y-72327821D01*
X118485410Y-72327817D01*
X118392646Y-72214783D01*
X118371748Y-72177893D01*
X118364500Y-72136119D01*
X118364500Y-60068500D01*
X118381113Y-60006500D01*
X118426500Y-59961113D01*
X118488500Y-59944500D01*
X122811500Y-59944500D01*
X122873500Y-59961113D01*
X122918887Y-60006500D01*
X122935500Y-60068500D01*
X122935500Y-63744285D01*
X122918887Y-63806285D01*
X122821121Y-63975619D01*
X122821113Y-63975634D01*
X122818801Y-63979640D01*
X122817107Y-63983954D01*
X122817105Y-63983960D01*
X122721028Y-64228757D01*
X122721023Y-64228770D01*
X122719334Y-64233076D01*
X122718303Y-64237590D01*
X122718301Y-64237599D01*
X122659784Y-64493981D01*
X122659782Y-64493991D01*
X122658752Y-64498506D01*
X122638406Y-64770000D01*
X122658752Y-65041494D01*
X122659782Y-65046010D01*
X122659784Y-65046018D01*
X122718301Y-65302400D01*
X122719334Y-65306924D01*
X122721025Y-65311233D01*
X122721028Y-65311242D01*
X122780841Y-65463640D01*
X122818801Y-65560360D01*
X122821116Y-65564370D01*
X122821121Y-65564380D01*
X122916134Y-65728947D01*
X122954928Y-65796140D01*
X123124677Y-66008999D01*
X123324255Y-66194180D01*
X123549203Y-66347547D01*
X123794497Y-66465674D01*
X124054657Y-66545923D01*
X124323872Y-66586500D01*
X124591491Y-66586500D01*
X124596128Y-66586500D01*
X124865343Y-66545923D01*
X125125503Y-66465674D01*
X125370797Y-66347547D01*
X125595745Y-66194180D01*
X125795323Y-66008999D01*
X125965072Y-65796140D01*
X126101199Y-65560360D01*
X126200666Y-65306924D01*
X126261248Y-65041494D01*
X126281594Y-64770000D01*
X126261248Y-64498506D01*
X126200666Y-64233076D01*
X126101199Y-63979640D01*
X126098880Y-63975624D01*
X126098878Y-63975619D01*
X126001113Y-63806285D01*
X125984500Y-63744285D01*
X125984500Y-60068500D01*
X126001113Y-60006500D01*
X126046500Y-59961113D01*
X126108500Y-59944500D01*
X132971500Y-59944500D01*
X133033500Y-59961113D01*
X133078887Y-60006500D01*
X133095500Y-60068500D01*
X133095500Y-63744285D01*
X133078887Y-63806285D01*
X132981121Y-63975619D01*
X132981113Y-63975634D01*
X132978801Y-63979640D01*
X132977107Y-63983954D01*
X132977105Y-63983960D01*
X132881028Y-64228757D01*
X132881023Y-64228770D01*
X132879334Y-64233076D01*
X132878303Y-64237590D01*
X132878301Y-64237599D01*
X132819784Y-64493981D01*
X132819782Y-64493991D01*
X132818752Y-64498506D01*
X132798406Y-64770000D01*
X132818752Y-65041494D01*
X132819782Y-65046010D01*
X132819784Y-65046018D01*
X132878301Y-65302400D01*
X132879334Y-65306924D01*
X132881025Y-65311233D01*
X132881028Y-65311242D01*
X132940841Y-65463640D01*
X132978801Y-65560360D01*
X132981116Y-65564370D01*
X132981121Y-65564380D01*
X133076134Y-65728947D01*
X133114928Y-65796140D01*
X133284677Y-66008999D01*
X133484255Y-66194180D01*
X133709203Y-66347547D01*
X133954497Y-66465674D01*
X134214657Y-66545923D01*
X134483872Y-66586500D01*
X134751491Y-66586500D01*
X134756128Y-66586500D01*
X135025343Y-66545923D01*
X135285503Y-66465674D01*
X135530797Y-66347547D01*
X135755745Y-66194180D01*
X135955323Y-66008999D01*
X136125072Y-65796140D01*
X136261199Y-65560360D01*
X136360666Y-65306924D01*
X136421248Y-65041494D01*
X136441594Y-64770000D01*
X136421248Y-64498506D01*
X136360666Y-64233076D01*
X136261199Y-63979640D01*
X136258880Y-63975624D01*
X136258878Y-63975619D01*
X136161113Y-63806285D01*
X136144500Y-63744285D01*
X136144500Y-60068500D01*
X136161113Y-60006500D01*
X136206500Y-59961113D01*
X136268500Y-59944500D01*
X143131500Y-59944500D01*
X143193500Y-59961113D01*
X143238887Y-60006500D01*
X143255500Y-60068500D01*
X143255500Y-63744285D01*
X143238887Y-63806285D01*
X143141121Y-63975619D01*
X143141113Y-63975634D01*
X143138801Y-63979640D01*
X143137107Y-63983954D01*
X143137105Y-63983960D01*
X143041028Y-64228757D01*
X143041023Y-64228770D01*
X143039334Y-64233076D01*
X143038303Y-64237590D01*
X143038301Y-64237599D01*
X142979784Y-64493981D01*
X142979782Y-64493991D01*
X142978752Y-64498506D01*
X142958406Y-64770000D01*
X142978752Y-65041494D01*
X142979782Y-65046010D01*
X142979784Y-65046018D01*
X143038301Y-65302400D01*
X143039334Y-65306924D01*
X143041025Y-65311233D01*
X143041028Y-65311242D01*
X143100841Y-65463640D01*
X143138801Y-65560360D01*
X143141116Y-65564370D01*
X143141121Y-65564380D01*
X143236134Y-65728947D01*
X143274928Y-65796140D01*
X143444677Y-66008999D01*
X143644255Y-66194180D01*
X143869203Y-66347547D01*
X144114497Y-66465674D01*
X144374657Y-66545923D01*
X144643872Y-66586500D01*
X144911491Y-66586500D01*
X144916128Y-66586500D01*
X145185343Y-66545923D01*
X145445503Y-66465674D01*
X145690797Y-66347547D01*
X145915745Y-66194180D01*
X146115323Y-66008999D01*
X146285072Y-65796140D01*
X146421199Y-65560360D01*
X146520666Y-65306924D01*
X146581248Y-65041494D01*
X146601594Y-64770000D01*
X146581248Y-64498506D01*
X146520666Y-64233076D01*
X146421199Y-63979640D01*
X146418880Y-63975624D01*
X146418878Y-63975619D01*
X146321113Y-63806285D01*
X146304500Y-63744285D01*
X146304500Y-60068500D01*
X146321113Y-60006500D01*
X146366500Y-59961113D01*
X146428500Y-59944500D01*
X153291500Y-59944500D01*
X153353500Y-59961113D01*
X153398887Y-60006500D01*
X153415500Y-60068500D01*
X153415500Y-63744285D01*
X153398887Y-63806285D01*
X153301121Y-63975619D01*
X153301113Y-63975634D01*
X153298801Y-63979640D01*
X153297107Y-63983954D01*
X153297105Y-63983960D01*
X153201028Y-64228757D01*
X153201023Y-64228770D01*
X153199334Y-64233076D01*
X153198303Y-64237590D01*
X153198301Y-64237599D01*
X153139784Y-64493981D01*
X153139782Y-64493991D01*
X153138752Y-64498506D01*
X153118406Y-64770000D01*
X153138752Y-65041494D01*
X153139782Y-65046010D01*
X153139784Y-65046018D01*
X153198301Y-65302400D01*
X153199334Y-65306924D01*
X153201025Y-65311233D01*
X153201028Y-65311242D01*
X153260841Y-65463640D01*
X153298801Y-65560360D01*
X153301116Y-65564370D01*
X153301121Y-65564380D01*
X153396134Y-65728947D01*
X153434928Y-65796140D01*
X153604677Y-66008999D01*
X153804255Y-66194180D01*
X154029203Y-66347547D01*
X154274497Y-66465674D01*
X154534657Y-66545923D01*
X154803872Y-66586500D01*
X155071491Y-66586500D01*
X155076128Y-66586500D01*
X155345343Y-66545923D01*
X155605503Y-66465674D01*
X155850797Y-66347547D01*
X156075745Y-66194180D01*
X156275323Y-66008999D01*
X156445072Y-65796140D01*
X156581199Y-65560360D01*
X156680666Y-65306924D01*
X156741248Y-65041494D01*
X156761594Y-64770000D01*
X156741248Y-64498506D01*
X156680666Y-64233076D01*
X156581199Y-63979640D01*
X156578880Y-63975624D01*
X156578878Y-63975619D01*
X156481113Y-63806285D01*
X156464500Y-63744285D01*
X156464500Y-60068500D01*
X156481113Y-60006500D01*
X156526500Y-59961113D01*
X156588500Y-59944500D01*
X163451500Y-59944500D01*
X163513500Y-59961113D01*
X163558887Y-60006500D01*
X163575500Y-60068500D01*
X163575500Y-63744285D01*
X163558887Y-63806285D01*
X163461121Y-63975619D01*
X163461113Y-63975634D01*
X163458801Y-63979640D01*
X163457107Y-63983954D01*
X163457105Y-63983960D01*
X163361028Y-64228757D01*
X163361023Y-64228770D01*
X163359334Y-64233076D01*
X163358303Y-64237590D01*
X163358301Y-64237599D01*
X163299784Y-64493981D01*
X163299782Y-64493991D01*
X163298752Y-64498506D01*
X163278406Y-64770000D01*
X163298752Y-65041494D01*
X163299782Y-65046010D01*
X163299784Y-65046018D01*
X163358301Y-65302400D01*
X163359334Y-65306924D01*
X163361025Y-65311233D01*
X163361028Y-65311242D01*
X163420841Y-65463640D01*
X163458801Y-65560360D01*
X163461116Y-65564370D01*
X163461121Y-65564380D01*
X163556134Y-65728947D01*
X163594928Y-65796140D01*
X163764677Y-66008999D01*
X163964255Y-66194180D01*
X164189203Y-66347547D01*
X164434497Y-66465674D01*
X164694657Y-66545923D01*
X164963872Y-66586500D01*
X165231491Y-66586500D01*
X165236128Y-66586500D01*
X165505343Y-66545923D01*
X165765503Y-66465674D01*
X166010797Y-66347547D01*
X166235745Y-66194180D01*
X166435323Y-66008999D01*
X166605072Y-65796140D01*
X166741199Y-65560360D01*
X166840666Y-65306924D01*
X166901248Y-65041494D01*
X166921594Y-64770000D01*
X166901248Y-64498506D01*
X166840666Y-64233076D01*
X166741199Y-63979640D01*
X166738880Y-63975624D01*
X166738878Y-63975619D01*
X166641113Y-63806285D01*
X166624500Y-63744285D01*
X166624500Y-58453214D01*
X166624601Y-58448221D01*
X166628018Y-58363416D01*
X166628220Y-58358415D01*
X166617382Y-58269169D01*
X166616883Y-58264218D01*
X166609654Y-58174657D01*
X166604063Y-58151977D01*
X166601365Y-58137247D01*
X166599154Y-58119038D01*
X166598551Y-58114069D01*
X166573541Y-58027726D01*
X166572258Y-58022936D01*
X166565742Y-57996500D01*
X166550749Y-57935669D01*
X166541593Y-57914180D01*
X166536565Y-57900071D01*
X166530070Y-57877646D01*
X166527926Y-57873127D01*
X166491546Y-57796458D01*
X166489495Y-57791902D01*
X166456226Y-57713815D01*
X166454270Y-57709224D01*
X166441785Y-57689481D01*
X166434557Y-57676359D01*
X166426691Y-57659780D01*
X166426690Y-57659779D01*
X166424551Y-57655270D01*
X166373486Y-57581290D01*
X166370770Y-57577180D01*
X166322716Y-57501189D01*
X166319401Y-57497447D01*
X166319398Y-57497443D01*
X166307225Y-57483702D01*
X166297996Y-57471924D01*
X166284727Y-57452700D01*
X166281271Y-57449102D01*
X166281267Y-57449097D01*
X166222475Y-57387889D01*
X166219088Y-57384218D01*
X166162801Y-57320683D01*
X166159494Y-57316950D01*
X166141404Y-57302179D01*
X166130406Y-57292033D01*
X166117682Y-57278787D01*
X166117680Y-57278785D01*
X166114220Y-57275183D01*
X166110234Y-57272187D01*
X166110222Y-57272177D01*
X166042356Y-57221179D01*
X166038453Y-57218122D01*
X165968832Y-57161279D01*
X165948595Y-57149595D01*
X165936119Y-57141348D01*
X165921444Y-57130321D01*
X165921437Y-57130317D01*
X165917444Y-57127316D01*
X165837872Y-57085553D01*
X165833500Y-57083145D01*
X165759996Y-57040708D01*
X165755668Y-57038209D01*
X165733828Y-57029926D01*
X165720185Y-57023785D01*
X165703930Y-57015254D01*
X165703924Y-57015251D01*
X165699497Y-57012928D01*
X165614203Y-56984452D01*
X165609548Y-56982793D01*
X165530191Y-56952696D01*
X165530182Y-56952693D01*
X165525522Y-56950926D01*
X165502637Y-56946253D01*
X165488188Y-56942381D01*
X165466024Y-56934983D01*
X165461091Y-56934181D01*
X165461086Y-56934180D01*
X165377327Y-56920568D01*
X165372415Y-56919668D01*
X165289252Y-56902690D01*
X165289245Y-56902689D01*
X165284356Y-56901691D01*
X165279367Y-56901489D01*
X165279360Y-56901489D01*
X165261011Y-56900750D01*
X165246115Y-56899245D01*
X165228008Y-56896302D01*
X165228002Y-56896301D01*
X165223070Y-56895500D01*
X165218069Y-56895500D01*
X165133214Y-56895500D01*
X165128221Y-56895399D01*
X165043417Y-56891981D01*
X165043409Y-56891981D01*
X165038415Y-56891780D01*
X165033449Y-56892382D01*
X165033447Y-56892383D01*
X165015222Y-56894596D01*
X165000276Y-56895500D01*
X155063070Y-56895500D01*
X154973214Y-56895500D01*
X154968221Y-56895399D01*
X154883417Y-56891981D01*
X154883409Y-56891981D01*
X154878415Y-56891780D01*
X154873449Y-56892382D01*
X154873447Y-56892383D01*
X154855222Y-56894596D01*
X154840276Y-56895500D01*
X144903070Y-56895500D01*
X144813214Y-56895500D01*
X144808221Y-56895399D01*
X144723417Y-56891981D01*
X144723409Y-56891981D01*
X144718415Y-56891780D01*
X144713449Y-56892382D01*
X144713447Y-56892383D01*
X144695222Y-56894596D01*
X144680276Y-56895500D01*
X134653214Y-56895500D01*
X134648221Y-56895399D01*
X134563417Y-56891981D01*
X134563409Y-56891981D01*
X134558415Y-56891780D01*
X134553449Y-56892382D01*
X134553447Y-56892383D01*
X134535222Y-56894596D01*
X134520276Y-56895500D01*
X124583070Y-56895500D01*
X124493214Y-56895500D01*
X124488221Y-56895399D01*
X124403417Y-56891981D01*
X124403409Y-56891981D01*
X124398415Y-56891780D01*
X124393449Y-56892382D01*
X124393447Y-56892383D01*
X124375222Y-56894596D01*
X124360276Y-56895500D01*
X116963070Y-56895500D01*
X116873214Y-56895500D01*
X116868221Y-56895399D01*
X116783417Y-56891981D01*
X116783409Y-56891981D01*
X116778415Y-56891780D01*
X116773449Y-56892382D01*
X116773447Y-56892383D01*
X116755222Y-56894596D01*
X116740276Y-56895500D01*
X106803070Y-56895500D01*
X106713214Y-56895500D01*
X106708221Y-56895399D01*
X106623417Y-56891981D01*
X106623409Y-56891981D01*
X106618415Y-56891780D01*
X106613449Y-56892382D01*
X106613447Y-56892383D01*
X106595222Y-56894596D01*
X106580276Y-56895500D01*
X101723070Y-56895500D01*
X101633214Y-56895500D01*
X101628221Y-56895399D01*
X101543417Y-56891981D01*
X101543409Y-56891981D01*
X101538415Y-56891780D01*
X101533449Y-56892382D01*
X101533447Y-56892383D01*
X101515222Y-56894596D01*
X101500276Y-56895500D01*
X99183070Y-56895500D01*
X93385404Y-56895500D01*
X93324045Y-56879255D01*
X93278763Y-56834775D01*
X93261424Y-56773716D01*
X93276570Y-56712076D01*
X93276962Y-56711356D01*
X93283141Y-56700042D01*
X93381568Y-56436149D01*
X93441437Y-56160934D01*
X93461530Y-55880000D01*
X93441437Y-55599066D01*
X93381568Y-55323851D01*
X93283141Y-55059958D01*
X93148160Y-54812759D01*
X92979372Y-54587285D01*
X92780215Y-54388128D01*
X92776678Y-54385480D01*
X92776672Y-54385475D01*
X92613076Y-54263009D01*
X92554741Y-54219340D01*
X92550854Y-54217217D01*
X92550847Y-54217213D01*
X92311431Y-54086482D01*
X92311424Y-54086479D01*
X92307542Y-54084359D01*
X92303399Y-54082813D01*
X92303393Y-54082811D01*
X92047792Y-53987477D01*
X92047788Y-53987476D01*
X92043649Y-53985932D01*
X92015098Y-53979721D01*
X91772767Y-53927005D01*
X91772759Y-53927003D01*
X91768434Y-53926063D01*
X91764020Y-53925747D01*
X91764011Y-53925746D01*
X91560038Y-53911158D01*
X91560036Y-53911157D01*
X91557828Y-53911000D01*
X91322172Y-53911000D01*
X91319964Y-53911157D01*
X91319961Y-53911158D01*
X91115988Y-53925746D01*
X91115977Y-53925747D01*
X91111566Y-53926063D01*
X91107242Y-53927003D01*
X91107232Y-53927005D01*
X90840676Y-53984991D01*
X90840673Y-53984991D01*
X90836351Y-53985932D01*
X90832214Y-53987474D01*
X90832207Y-53987477D01*
X90576606Y-54082811D01*
X90576595Y-54082815D01*
X90572458Y-54084359D01*
X90568580Y-54086476D01*
X90568568Y-54086482D01*
X90329152Y-54217213D01*
X90329138Y-54217221D01*
X90325259Y-54219340D01*
X90321718Y-54221990D01*
X90321702Y-54222001D01*
X90176409Y-54330767D01*
X90141258Y-54349154D01*
X90102099Y-54355500D01*
X85920019Y-54355500D01*
X85856270Y-54337858D01*
X85810661Y-54289953D01*
X85772153Y-54217909D01*
X85772151Y-54217906D01*
X85769278Y-54212531D01*
X85642252Y-54057748D01*
X85487469Y-53930722D01*
X85482096Y-53927850D01*
X85482090Y-53927846D01*
X85316250Y-53839203D01*
X85316247Y-53839201D01*
X85310880Y-53836333D01*
X85305062Y-53834568D01*
X85305057Y-53834566D01*
X85125096Y-53779975D01*
X85125090Y-53779973D01*
X85119269Y-53778208D01*
X85113214Y-53777611D01*
X85113206Y-53777610D01*
X84972968Y-53763798D01*
X84972951Y-53763797D01*
X84969934Y-53763500D01*
X82670066Y-53763500D01*
X82667049Y-53763797D01*
X82667031Y-53763798D01*
X82526793Y-53777610D01*
X82526783Y-53777611D01*
X82520731Y-53778208D01*
X82514911Y-53779973D01*
X82514903Y-53779975D01*
X82334942Y-53834566D01*
X82334933Y-53834569D01*
X82329120Y-53836333D01*
X82323756Y-53839200D01*
X82323749Y-53839203D01*
X82157909Y-53927846D01*
X82157898Y-53927852D01*
X82152531Y-53930722D01*
X82147823Y-53934585D01*
X82147818Y-53934589D01*
X82002454Y-54053885D01*
X82002448Y-54053890D01*
X81997748Y-54057748D01*
X81993890Y-54062448D01*
X81993885Y-54062454D01*
X81874589Y-54207818D01*
X81874585Y-54207823D01*
X81870722Y-54212531D01*
X81867852Y-54217898D01*
X81867846Y-54217909D01*
X81779203Y-54383749D01*
X81779200Y-54383756D01*
X81776333Y-54389120D01*
X81774569Y-54394933D01*
X81774566Y-54394942D01*
X81719975Y-54574903D01*
X81719973Y-54574911D01*
X81718208Y-54580731D01*
X81717611Y-54586783D01*
X81717610Y-54586793D01*
X81703798Y-54727031D01*
X81703797Y-54727049D01*
X81703500Y-54730066D01*
X81703500Y-57029934D01*
X81703797Y-57032951D01*
X81703798Y-57032968D01*
X81717610Y-57173206D01*
X81717611Y-57173214D01*
X81718208Y-57179269D01*
X81719973Y-57185090D01*
X81719975Y-57185096D01*
X81774566Y-57365057D01*
X81774568Y-57365062D01*
X81776333Y-57370880D01*
X81779201Y-57376247D01*
X81779203Y-57376250D01*
X81867846Y-57542090D01*
X81867850Y-57542096D01*
X81870722Y-57547469D01*
X81997748Y-57702252D01*
X82152531Y-57829278D01*
X82157906Y-57832151D01*
X82157909Y-57832153D01*
X82243021Y-57877646D01*
X82329120Y-57923667D01*
X82520731Y-57981792D01*
X82670066Y-57996500D01*
X84966884Y-57996500D01*
X84969934Y-57996500D01*
X85119269Y-57981792D01*
X85310880Y-57923667D01*
X85487469Y-57829278D01*
X85642252Y-57702252D01*
X85769278Y-57547469D01*
X85810661Y-57470046D01*
X85856270Y-57422142D01*
X85920019Y-57404500D01*
X89494596Y-57404500D01*
X89555955Y-57420745D01*
X89601237Y-57465225D01*
X89618576Y-57526284D01*
X89603430Y-57587924D01*
X89598981Y-57596070D01*
X89598975Y-57596081D01*
X89596859Y-57599958D01*
X89595315Y-57604095D01*
X89595311Y-57604106D01*
X89499977Y-57859707D01*
X89499974Y-57859714D01*
X89498432Y-57863851D01*
X89497491Y-57868173D01*
X89497491Y-57868176D01*
X89439505Y-58134732D01*
X89439503Y-58134742D01*
X89438563Y-58139066D01*
X89438247Y-58143477D01*
X89438246Y-58143488D01*
X89429433Y-58266716D01*
X89418470Y-58420000D01*
X89418786Y-58424418D01*
X89438246Y-58696511D01*
X89438247Y-58696520D01*
X89438563Y-58700934D01*
X89439503Y-58705259D01*
X89439505Y-58705267D01*
X89492221Y-58947598D01*
X89498432Y-58976149D01*
X89596859Y-59240042D01*
X89598982Y-59243930D01*
X89619888Y-59282217D01*
X89634383Y-59328754D01*
X89629823Y-59377283D01*
X89606910Y-59420304D01*
X89594593Y-59435312D01*
X89594585Y-59435323D01*
X89590722Y-59440031D01*
X89587852Y-59445398D01*
X89587846Y-59445409D01*
X89499203Y-59611249D01*
X89499200Y-59611256D01*
X89496333Y-59616620D01*
X89494569Y-59622433D01*
X89494566Y-59622442D01*
X89439975Y-59802403D01*
X89439973Y-59802411D01*
X89438208Y-59808231D01*
X89437611Y-59814283D01*
X89437610Y-59814293D01*
X89423798Y-59954531D01*
X89423797Y-59954549D01*
X89423500Y-59957566D01*
X89423500Y-61962434D01*
X89423797Y-61965451D01*
X89423798Y-61965468D01*
X89437610Y-62105706D01*
X89437611Y-62105714D01*
X89438208Y-62111769D01*
X89439973Y-62117590D01*
X89439975Y-62117596D01*
X89494566Y-62297557D01*
X89494568Y-62297562D01*
X89496333Y-62303380D01*
X89499201Y-62308747D01*
X89499203Y-62308750D01*
X89587846Y-62474590D01*
X89587850Y-62474596D01*
X89590722Y-62479969D01*
X89717748Y-62634752D01*
X89870165Y-62759836D01*
X89903595Y-62802672D01*
X89915500Y-62855689D01*
X89915500Y-73281500D01*
X89898887Y-73343500D01*
X89853500Y-73388887D01*
X89791500Y-73405500D01*
X87726640Y-73405500D01*
X87724143Y-73405475D01*
X87622652Y-73403430D01*
X87622643Y-73403430D01*
X87617654Y-73403330D01*
X87612710Y-73404031D01*
X87612702Y-73404032D01*
X87545124Y-73413622D01*
X87537682Y-73414450D01*
X87469639Y-73419943D01*
X87469629Y-73419944D01*
X87464657Y-73420346D01*
X87459810Y-73421540D01*
X87459807Y-73421541D01*
X87440251Y-73426360D01*
X87425810Y-73429919D01*
X87413570Y-73432290D01*
X87378903Y-73437210D01*
X87378882Y-73437214D01*
X87373955Y-73437914D01*
X87369203Y-73439394D01*
X87369188Y-73439398D01*
X87304006Y-73459709D01*
X87296795Y-73461719D01*
X87230527Y-73478053D01*
X87230520Y-73478055D01*
X87225669Y-73479251D01*
X87221077Y-73481207D01*
X87221063Y-73481212D01*
X87188856Y-73494933D01*
X87177154Y-73499237D01*
X87143725Y-73509655D01*
X87143719Y-73509657D01*
X87138958Y-73511141D01*
X87134498Y-73513368D01*
X87134484Y-73513374D01*
X87073407Y-73543877D01*
X87066610Y-73547019D01*
X87003819Y-73573772D01*
X87003816Y-73573773D01*
X86999224Y-73575730D01*
X86995013Y-73578392D01*
X86995001Y-73578399D01*
X86965406Y-73597113D01*
X86954546Y-73603238D01*
X86923219Y-73618884D01*
X86923204Y-73618892D01*
X86918753Y-73621116D01*
X86914705Y-73624031D01*
X86914697Y-73624037D01*
X86859306Y-73663941D01*
X86853101Y-73668133D01*
X86795402Y-73704619D01*
X86795395Y-73704624D01*
X86791189Y-73707284D01*
X86787465Y-73710582D01*
X86787449Y-73710595D01*
X86761231Y-73733822D01*
X86751491Y-73741612D01*
X86723098Y-73762068D01*
X86723094Y-73762071D01*
X86719040Y-73764992D01*
X86715510Y-73768521D01*
X86715511Y-73768521D01*
X86667242Y-73816789D01*
X86661791Y-73821920D01*
X86606950Y-73870506D01*
X86603792Y-73874373D01*
X86603783Y-73874383D01*
X86581638Y-73901504D01*
X86573271Y-73910759D01*
X78806850Y-81677181D01*
X78766622Y-81704061D01*
X78719169Y-81713500D01*
X78590439Y-81713500D01*
X78586255Y-81714075D01*
X78586241Y-81714076D01*
X78298306Y-81753653D01*
X78298299Y-81753654D01*
X78294104Y-81754231D01*
X78290026Y-81755373D01*
X78290019Y-81755375D01*
X78010154Y-81833789D01*
X78006075Y-81834932D01*
X78002200Y-81836614D01*
X78002189Y-81836619D01*
X77735600Y-81952416D01*
X77735595Y-81952418D01*
X77731717Y-81954103D01*
X77728106Y-81956298D01*
X77728098Y-81956303D01*
X77479768Y-82107315D01*
X77479757Y-82107322D01*
X77476142Y-82109521D01*
X77472852Y-82112197D01*
X77472850Y-82112199D01*
X77247394Y-82295620D01*
X77247383Y-82295629D01*
X77244110Y-82298293D01*
X77039944Y-82516902D01*
X77037501Y-82520362D01*
X77037496Y-82520369D01*
X76869893Y-82757809D01*
X76869889Y-82757814D01*
X76867447Y-82761275D01*
X76865501Y-82765029D01*
X76865497Y-82765037D01*
X76731780Y-83023098D01*
X76731775Y-83023107D01*
X76729831Y-83026861D01*
X76728414Y-83030846D01*
X76728410Y-83030857D01*
X76631083Y-83304710D01*
X76631079Y-83304722D01*
X76629662Y-83308711D01*
X76628799Y-83312861D01*
X76628798Y-83312867D01*
X76569667Y-83597419D01*
X76569665Y-83597430D01*
X76568804Y-83601576D01*
X76568515Y-83605800D01*
X76568514Y-83605808D01*
X76550769Y-83865228D01*
X76548391Y-83900000D01*
X76548680Y-83904225D01*
X76564093Y-84129560D01*
X76568804Y-84198424D01*
X76569665Y-84202571D01*
X76569667Y-84202580D01*
X76628798Y-84487132D01*
X76629662Y-84491289D01*
X76631080Y-84495281D01*
X76631083Y-84495289D01*
X76728410Y-84769142D01*
X76729831Y-84773139D01*
X76731778Y-84776897D01*
X76731780Y-84776901D01*
X76774209Y-84858785D01*
X76867447Y-85038725D01*
X77039944Y-85283098D01*
X77157421Y-85408885D01*
X77182124Y-85435336D01*
X77206855Y-85474482D01*
X77215500Y-85519972D01*
X77215500Y-87280028D01*
X77206855Y-87325518D01*
X77182123Y-87364664D01*
X77039944Y-87516902D01*
X77037501Y-87520362D01*
X77037496Y-87520369D01*
X76869893Y-87757809D01*
X76869889Y-87757814D01*
X76867447Y-87761275D01*
X76865501Y-87765029D01*
X76865497Y-87765037D01*
X76731780Y-88023098D01*
X76731775Y-88023107D01*
X76729831Y-88026861D01*
X76728414Y-88030846D01*
X76728410Y-88030857D01*
X76631083Y-88304710D01*
X76631079Y-88304722D01*
X76629662Y-88308711D01*
X76628799Y-88312861D01*
X76628798Y-88312867D01*
X76569667Y-88597419D01*
X76569665Y-88597430D01*
X76568804Y-88601576D01*
X76568515Y-88605800D01*
X76568514Y-88605808D01*
X76548680Y-88895775D01*
X76548391Y-88900000D01*
X70129400Y-88900000D01*
X70129400Y-72689918D01*
X75114400Y-72689918D01*
X75114753Y-72696514D01*
X75119973Y-72745067D01*
X75123511Y-72760041D01*
X75167947Y-72879177D01*
X75176362Y-72894589D01*
X75251898Y-72995492D01*
X75264307Y-73007901D01*
X75365210Y-73083437D01*
X75380622Y-73091852D01*
X75499758Y-73136288D01*
X75514732Y-73139826D01*
X75563285Y-73145046D01*
X75569882Y-73145400D01*
X76848074Y-73145400D01*
X76860949Y-73141949D01*
X76864400Y-73129074D01*
X77364400Y-73129074D01*
X77367850Y-73141949D01*
X77380726Y-73145400D01*
X78658918Y-73145400D01*
X78665514Y-73145046D01*
X78714067Y-73139826D01*
X78729041Y-73136288D01*
X78848177Y-73091852D01*
X78863589Y-73083437D01*
X78964492Y-73007901D01*
X78976901Y-72995492D01*
X79052437Y-72894589D01*
X79060852Y-72879177D01*
X79105288Y-72760041D01*
X79108826Y-72745067D01*
X79114046Y-72696514D01*
X79114400Y-72689918D01*
X79114400Y-71411726D01*
X79110949Y-71398850D01*
X79098074Y-71395400D01*
X77380726Y-71395400D01*
X77367850Y-71398850D01*
X77364400Y-71411726D01*
X77364400Y-73129074D01*
X76864400Y-73129074D01*
X76864400Y-71411726D01*
X76860949Y-71398850D01*
X76848074Y-71395400D01*
X75130726Y-71395400D01*
X75117850Y-71398850D01*
X75114400Y-71411726D01*
X75114400Y-72689918D01*
X70129400Y-72689918D01*
X70129400Y-70879074D01*
X75114400Y-70879074D01*
X75117850Y-70891949D01*
X75130726Y-70895400D01*
X76848074Y-70895400D01*
X76860949Y-70891949D01*
X76864400Y-70879074D01*
X77364400Y-70879074D01*
X77367850Y-70891949D01*
X77380726Y-70895400D01*
X79098074Y-70895400D01*
X79110949Y-70891949D01*
X79114400Y-70879074D01*
X79114400Y-69600882D01*
X79114046Y-69594285D01*
X79108826Y-69545732D01*
X79105288Y-69530758D01*
X79060852Y-69411622D01*
X79052437Y-69396210D01*
X78976901Y-69295307D01*
X78964492Y-69282898D01*
X78863589Y-69207362D01*
X78848177Y-69198947D01*
X78729041Y-69154511D01*
X78714067Y-69150973D01*
X78665514Y-69145753D01*
X78658918Y-69145400D01*
X77380726Y-69145400D01*
X77367850Y-69148850D01*
X77364400Y-69161726D01*
X77364400Y-70879074D01*
X76864400Y-70879074D01*
X76864400Y-69161726D01*
X76860949Y-69148850D01*
X76848074Y-69145400D01*
X75569882Y-69145400D01*
X75563285Y-69145753D01*
X75514732Y-69150973D01*
X75499758Y-69154511D01*
X75380622Y-69198947D01*
X75365210Y-69207362D01*
X75264307Y-69282898D01*
X75251898Y-69295307D01*
X75176362Y-69396210D01*
X75167947Y-69411622D01*
X75123511Y-69530758D01*
X75119973Y-69545732D01*
X75114753Y-69594285D01*
X75114400Y-69600882D01*
X75114400Y-70879074D01*
X70129400Y-70879074D01*
X70129400Y-66065400D01*
X74592924Y-66065400D01*
X74612807Y-66381425D01*
X74613534Y-66385237D01*
X74613536Y-66385251D01*
X74671410Y-66688636D01*
X74672141Y-66692466D01*
X74673344Y-66696169D01*
X74673346Y-66696176D01*
X74735981Y-66888948D01*
X74769991Y-66993617D01*
X74904814Y-67280130D01*
X74906896Y-67283411D01*
X74906899Y-67283416D01*
X75072392Y-67544192D01*
X75072396Y-67544198D01*
X75074483Y-67547486D01*
X75076962Y-67550483D01*
X75076966Y-67550488D01*
X75109571Y-67589900D01*
X75276323Y-67791469D01*
X75507151Y-68008231D01*
X75763326Y-68194353D01*
X76040808Y-68346900D01*
X76335221Y-68463466D01*
X76641923Y-68542214D01*
X76956075Y-68581900D01*
X77268830Y-68581900D01*
X77272725Y-68581900D01*
X77586877Y-68542214D01*
X77893579Y-68463466D01*
X78187992Y-68346900D01*
X78465474Y-68194353D01*
X78721649Y-68008231D01*
X78952477Y-67791469D01*
X79082034Y-67634860D01*
X79124782Y-67601701D01*
X79177579Y-67589900D01*
X82327280Y-67589900D01*
X82368805Y-67597060D01*
X82405535Y-67617712D01*
X82596604Y-67773158D01*
X82843997Y-67923601D01*
X83109571Y-68038956D01*
X83330577Y-68100878D01*
X83384299Y-68115931D01*
X83384301Y-68115931D01*
X83388379Y-68117074D01*
X83675227Y-68156500D01*
X83960536Y-68156500D01*
X83964773Y-68156500D01*
X84251621Y-68117074D01*
X84530429Y-68038956D01*
X84796003Y-67923601D01*
X85043396Y-67773158D01*
X85268000Y-67590429D01*
X85465630Y-67378819D01*
X85632605Y-67142269D01*
X85765814Y-66885186D01*
X85862777Y-66612359D01*
X85921687Y-66328870D01*
X85941446Y-66040000D01*
X85921687Y-65751130D01*
X85862777Y-65467641D01*
X85765814Y-65194814D01*
X85632605Y-64937731D01*
X85514208Y-64770000D01*
X85468074Y-64704643D01*
X85468072Y-64704640D01*
X85465630Y-64701181D01*
X85272119Y-64493981D01*
X85270887Y-64492662D01*
X85270885Y-64492660D01*
X85268000Y-64489571D01*
X85264718Y-64486901D01*
X85264715Y-64486898D01*
X85168325Y-64408479D01*
X85043396Y-64306842D01*
X85039772Y-64304638D01*
X85039769Y-64304636D01*
X84799621Y-64158599D01*
X84799619Y-64158598D01*
X84796003Y-64156399D01*
X84724261Y-64125237D01*
X84534310Y-64042729D01*
X84534300Y-64042725D01*
X84530429Y-64041044D01*
X84526357Y-64039903D01*
X84255700Y-63964068D01*
X84255687Y-63964065D01*
X84251621Y-63962926D01*
X84247434Y-63962350D01*
X84247422Y-63962348D01*
X83968970Y-63924076D01*
X83968957Y-63924075D01*
X83964773Y-63923500D01*
X83675227Y-63923500D01*
X83671043Y-63924075D01*
X83671029Y-63924076D01*
X83392577Y-63962348D01*
X83392562Y-63962350D01*
X83388379Y-63962926D01*
X83384314Y-63964064D01*
X83384299Y-63964068D01*
X83113642Y-64039903D01*
X83113637Y-64039904D01*
X83109571Y-64041044D01*
X83105704Y-64042723D01*
X83105689Y-64042729D01*
X82847880Y-64154712D01*
X82847875Y-64154714D01*
X82843997Y-64156399D01*
X82840386Y-64158594D01*
X82840378Y-64158599D01*
X82600230Y-64304636D01*
X82600219Y-64304643D01*
X82596604Y-64306842D01*
X82593314Y-64309518D01*
X82593312Y-64309520D01*
X82375284Y-64486898D01*
X82375273Y-64486907D01*
X82372000Y-64489571D01*
X82369118Y-64492656D01*
X82369106Y-64492668D01*
X82360826Y-64501535D01*
X82319604Y-64530634D01*
X82270201Y-64540900D01*
X79177579Y-64540900D01*
X79124782Y-64529099D01*
X79082035Y-64495940D01*
X78954962Y-64342335D01*
X78952477Y-64339331D01*
X78844143Y-64237599D01*
X78724490Y-64125237D01*
X78724491Y-64125237D01*
X78721649Y-64122569D01*
X78609439Y-64041044D01*
X78468637Y-63938745D01*
X78468636Y-63938744D01*
X78465474Y-63936447D01*
X78187992Y-63783900D01*
X78184377Y-63782468D01*
X78184367Y-63782464D01*
X77897201Y-63668768D01*
X77897200Y-63668767D01*
X77893579Y-63667334D01*
X77889809Y-63666366D01*
X77889806Y-63666365D01*
X77590659Y-63589557D01*
X77590658Y-63589556D01*
X77586877Y-63588586D01*
X77583006Y-63588097D01*
X77583001Y-63588096D01*
X77276591Y-63549388D01*
X77276584Y-63549387D01*
X77272725Y-63548900D01*
X76956075Y-63548900D01*
X76952216Y-63549387D01*
X76952208Y-63549388D01*
X76645798Y-63588096D01*
X76645790Y-63588097D01*
X76641923Y-63588586D01*
X76638144Y-63589556D01*
X76638140Y-63589557D01*
X76338993Y-63666365D01*
X76338985Y-63666367D01*
X76335221Y-63667334D01*
X76331604Y-63668765D01*
X76331598Y-63668768D01*
X76044432Y-63782464D01*
X76044416Y-63782471D01*
X76040808Y-63783900D01*
X76037398Y-63785774D01*
X76037393Y-63785777D01*
X75766752Y-63934563D01*
X75766745Y-63934567D01*
X75763326Y-63936447D01*
X75760170Y-63938739D01*
X75760162Y-63938745D01*
X75510307Y-64120275D01*
X75510296Y-64120283D01*
X75507151Y-64122569D01*
X75504316Y-64125230D01*
X75504309Y-64125237D01*
X75279160Y-64336666D01*
X75279153Y-64336673D01*
X75276323Y-64339331D01*
X75273848Y-64342322D01*
X75273844Y-64342327D01*
X75076966Y-64580311D01*
X75076956Y-64580323D01*
X75074483Y-64583314D01*
X75072401Y-64586593D01*
X75072392Y-64586607D01*
X74906899Y-64847383D01*
X74906892Y-64847394D01*
X74904814Y-64850670D01*
X74903161Y-64854181D01*
X74903158Y-64854188D01*
X74812890Y-65046018D01*
X74769991Y-65137183D01*
X74768791Y-65140874D01*
X74768787Y-65140886D01*
X74673346Y-65434623D01*
X74673343Y-65434634D01*
X74672141Y-65438334D01*
X74671412Y-65442154D01*
X74671410Y-65442163D01*
X74613536Y-65745548D01*
X74613533Y-65745564D01*
X74612807Y-65749375D01*
X74592924Y-66065400D01*
X70129400Y-66065400D01*
X70129400Y-50238200D01*
X70146013Y-50176200D01*
X70191400Y-50130813D01*
X70253400Y-50114200D01*
X169751137Y-50114200D01*
X169813155Y-50130823D01*
G37*
%TD.AperFunction*%
%TD*%
M02*
